<?xml version="1.0" encoding="UTF-8"?>
<!DOCTYPE svg PUBLIC "-//W3C//DTD SVG 1.1//EN" "http://www.w3.org/Graphics/SVG/1.1/DTD/svg11.dtd">
<svg xmlns="http://www.w3.org/2000/svg" version="1.1" width="166px" height="162px" style="shape-rendering:geometricPrecision; text-rendering:geometricPrecision; image-rendering:optimizeQuality; fill-rule:evenodd; clip-rule:evenodd" xmlns:xlink="http://www.w3.org/1999/xlink">
<g><path style="opacity:0.422" fill="#d2c0b5" d="M 105.5,36.5 C 105.5,36.8333 105.5,37.1667 105.5,37.5C 98.1507,37.5488 90.8174,37.8822 83.5,38.5C 89.2729,36.9802 95.2729,35.9802 101.5,35.5C 102.925,35.6233 104.258,35.9566 105.5,36.5 Z"/></g>
<g><path style="opacity:0.15" fill="#f2e0d2" d="M 105.5,37.5 C 105.5,37.1667 105.5,36.8333 105.5,36.5C 113.625,37.6056 121.625,38.6056 129.5,39.5C 123.455,39.6968 117.455,39.3635 111.5,38.5C 111.167,38.5 110.833,38.5 110.5,38.5C 109.081,37.5489 107.415,37.2155 105.5,37.5 Z"/></g>
<g><path style="opacity:0.863" fill="#cdb098" d="M 111.5,38.5 C 117.455,39.3635 123.455,39.6968 129.5,39.5C 135.14,41.1225 136.807,44.7892 134.5,50.5C 137.227,54.5272 137.894,58.8605 136.5,63.5C 137.193,64.5178 137.859,65.5178 138.5,66.5C 137.167,66.5 136.5,67.1667 136.5,68.5C 135.5,67.5 134.5,66.5 133.5,65.5C 134.649,65.2089 135.316,64.3756 135.5,63C 135.676,60.6405 135.009,60.1405 133.5,61.5C 133.663,59.1432 133.497,56.8098 133,54.5C 132.329,53.7476 131.496,53.4142 130.5,53.5C 133.303,50.7964 134.137,47.4631 133,43.5C 132.802,45.3817 132.302,47.0484 131.5,48.5C 131.896,45.9556 131.229,43.7889 129.5,42C 122.508,41.5004 115.508,41.3337 108.5,41.5C 109.9,40.8999 110.9,39.8999 111.5,38.5 Z"/></g>
<g><path style="opacity:0.561" fill="#b08e77" d="M 83.5,38.5 C 90.8174,37.8822 98.1507,37.5488 105.5,37.5C 107.415,37.2155 109.081,37.5489 110.5,38.5C 105.305,38.1795 100.305,38.5128 95.5,39.5C 87.7056,39.4954 80.2056,40.8287 73,43.5C 65.6419,41.7227 58.1419,41.0561 50.5,41.5C 50.5,41.1667 50.5,40.8333 50.5,40.5C 53.059,39.0338 55.8923,38.0338 59,37.5C 63.741,38.1788 68.4076,39.1788 73,40.5C 76.4661,39.5911 79.9661,38.9244 83.5,38.5 Z"/></g>
<g><path style="opacity:1" fill="#efc49e" d="M 107.5,41.5 C 107.833,41.5 108.167,41.5 108.5,41.5C 115.508,41.3337 122.508,41.5004 129.5,42C 131.229,43.7889 131.896,45.9556 131.5,48.5C 122.912,49.6357 114.245,49.8023 105.5,49C 104.446,47.6124 104.28,46.1124 105,44.5C 106.045,43.6266 106.878,42.6266 107.5,41.5 Z"/></g>
<g><path style="opacity:1" fill="#eecfa9" d="M 89.5,46.5 C 87.5018,47.1475 85.5018,47.9808 83.5,49C 83.8333,49.3333 84.1667,49.6667 84.5,50C 83.5765,53.9393 81.4098,57.1059 78,59.5C 76.5455,62.9121 74.7121,66.0788 72.5,69C 68.8954,69.536 65.8954,68.3693 63.5,65.5C 62.1667,66.1667 61.1667,67.1667 60.5,68.5C 56.3033,68.9692 52.4699,70.3026 49,72.5C 46.7468,65.7249 45.9134,58.7249 46.5,51.5C 46.33,50.1779 46.6634,49.0113 47.5,48C 50.743,46.5304 54.0763,45.3637 57.5,44.5C 65.8063,48.4487 74.1396,48.4487 82.5,44.5C 84.9322,44.8864 87.2655,45.5531 89.5,46.5 Z"/></g>
<g><path style="opacity:1" fill="#ab856c" d="M 50.5,40.5 C 50.5,40.8333 50.5,41.1667 50.5,41.5C 46.3578,42.4823 44.1912,45.1489 44,49.5C 43.1167,60.8833 43.4501,72.2166 45,83.5C 45.6708,84.2524 46.5041,84.5858 47.5,84.5C 51.3864,86.275 55.7197,87.1084 60.5,87C 59.5842,87.2784 58.9175,87.7784 58.5,88.5C 51.7438,90.7465 46.2438,89.0798 42,83.5C 41.5065,81.8659 41.3398,80.1992 41.5,78.5C 41.2566,67.1356 41.59,55.8023 42.5,44.5C 44.5792,42.127 47.2459,40.7936 50.5,40.5 Z"/></g>
<g><path style="opacity:1" fill="#cca07b" d="M 107.5,41.5 C 106.878,42.6266 106.045,43.6266 105,44.5C 104.28,46.1124 104.446,47.6124 105.5,49C 114.245,49.8023 122.912,49.6357 131.5,48.5C 132.302,47.0484 132.802,45.3817 133,43.5C 134.137,47.4631 133.303,50.7964 130.5,53.5C 128.167,53.5 125.833,53.5 123.5,53.5C 117.256,52.5422 110.923,52.2088 104.5,52.5C 103.671,49.5314 103.505,46.5314 104,43.5C 104.816,42.1772 105.983,41.5106 107.5,41.5 Z"/></g>
<g><path style="opacity:0.184" fill="#ddcabb" d="M 42.5,44.5 C 41.59,55.8023 41.2566,67.1356 41.5,78.5C 40.3415,68.3416 40.1748,58.0083 41,47.5C 41.2321,46.2625 41.7321,45.2625 42.5,44.5 Z"/></g>
<g><path style="opacity:1" fill="#e8bb94" d="M 104.5,52.5 C 103.469,53.2485 102.302,53.9152 101,54.5C 100.985,56.7914 100.818,58.9581 100.5,61C 108.197,61.5695 115.864,61.2362 123.5,60C 124.308,59.6924 124.975,59.1924 125.5,58.5C 124.544,56.9246 123.877,55.258 123.5,53.5C 125.833,53.5 128.167,53.5 130.5,53.5C 131.496,53.4142 132.329,53.7476 133,54.5C 133.497,56.8098 133.663,59.1432 133.5,61.5C 122.679,62.4946 111.679,62.8279 100.5,62.5C 98.7986,61.7886 97.7986,60.4553 97.5,58.5C 97.9732,54.3617 100.307,52.3617 104.5,52.5 Z"/></g>
<g><path style="opacity:1" fill="#ae6b45" d="M 97.5,58.5 C 97.7986,60.4553 98.7986,61.7886 100.5,62.5C 100.611,63.1174 100.944,63.6174 101.5,64C 100.584,64.2784 99.9175,64.7784 99.5,65.5C 96.858,65.4877 95.5246,66.821 95.5,69.5C 94.6909,71.2922 94.1909,73.2922 94,75.5C 93.1714,68.9364 93.8381,62.6031 96,56.5C 96.2784,57.4158 96.7784,58.0825 97.5,58.5 Z"/></g>
<g><path style="opacity:1" fill="#eacca5" d="M 104.5,52.5 C 110.923,52.2088 117.256,52.5422 123.5,53.5C 123.877,55.258 124.544,56.9246 125.5,58.5C 124.975,59.1924 124.308,59.6924 123.5,60C 115.864,61.2362 108.197,61.5695 100.5,61C 100.818,58.9581 100.985,56.7914 101,54.5C 102.302,53.9152 103.469,53.2485 104.5,52.5 Z"/></g>
<g><path style="opacity:1" fill="#c49774" d="M 133.5,65.5 C 122.179,64.1888 110.846,64.1888 99.5,65.5C 99.9175,64.7784 100.584,64.2784 101.5,64C 100.944,63.6174 100.611,63.1174 100.5,62.5C 111.679,62.8279 122.679,62.4946 133.5,61.5C 135.009,60.1405 135.676,60.6405 135.5,63C 135.316,64.3756 134.649,65.2089 133.5,65.5 Z"/></g>
<g><path style="opacity:1" fill="#eabb99" d="M 133.5,65.5 C 134.5,66.5 135.5,67.5 136.5,68.5C 136.958,71.3938 136.291,73.8938 134.5,76C 122.887,77.3872 111.221,77.8872 99.5,77.5C 98.391,77.4431 97.391,77.1098 96.5,76.5C 95.6314,74.283 95.298,71.9496 95.5,69.5C 95.5246,66.821 96.858,65.4877 99.5,65.5C 110.846,64.1888 122.179,64.1888 133.5,65.5 Z"/></g>
<g><path style="opacity:1" fill="#edc29a" d="M 88.5,66.5 C 88.0223,74.3111 88.0223,81.9778 88.5,89.5C 90.8149,90.2343 92.6482,91.5676 94,93.5C 94.3333,93.1667 94.6667,92.8333 95,92.5C 95.5855,94.1293 96.4188,95.6293 97.5,97C 97.3865,98.2798 96.7199,99.1131 95.5,99.5C 93.1625,97.9893 92.4958,98.3227 93.5,100.5C 92.066,102.22 91.2326,104.22 91,106.5C 89.9887,107.337 88.8221,107.67 87.5,107.5C 85.5086,105.543 83.5086,103.543 81.5,101.5C 81.5,101.167 81.5,100.833 81.5,100.5C 79.3682,97.7254 78.0349,94.5588 77.5,91C 77.9574,90.586 78.2907,90.086 78.5,89.5C 74.503,87.1947 72.1697,83.8614 71.5,79.5C 70.1266,79.6567 68.7932,79.49 67.5,79C 67.8333,78.6667 68.1667,78.3333 68.5,78C 67.1667,77 65.8333,76 64.5,75C 64.7284,74.6012 65.0618,74.4346 65.5,74.5C 69.6211,73.3111 73.4544,73.3111 77,74.5C 79.2088,71.211 80.0421,67.5443 79.5,63.5C 82.2716,62.6285 84.9382,62.6285 87.5,63.5C 87.2627,64.791 87.596,65.791 88.5,66.5 Z"/></g>
<g><path style="opacity:1" fill="#e9cba6" d="M 102.5,66.5 C 107.511,66.3341 112.511,66.5007 117.5,67C 119.587,67.7922 121.421,68.9588 123,70.5C 123.089,72.1134 122.255,73.2801 120.5,74C 121.167,74.3333 121.833,74.6667 122.5,75C 116.167,75.6667 109.833,75.6667 103.5,75C 101.82,74.6532 100.82,73.6532 100.5,72C 101.856,70.4329 102.523,68.5996 102.5,66.5 Z"/></g>
<g><path style="opacity:1" fill="#d59f77" d="M 93.5,56.5 C 92.0761,65.1006 91.4094,73.7672 91.5,82.5C 90.7321,81.7375 90.2321,80.7375 90,79.5C 89.5006,74.1771 89.334,68.8437 89.5,63.5C 90.6877,61.0538 92.021,58.7205 93.5,56.5 Z"/></g>
<g><path style="opacity:1" fill="#e8ba93" d="M 95.5,39.5 C 98.1667,39.5 100.833,39.5 103.5,39.5C 102.057,43.0328 100.89,46.6994 100,50.5C 97.3098,52.0269 95.1432,54.0269 93.5,56.5C 92.4455,51.2514 94.4455,48.2514 99.5,47.5C 99.5,46.1667 99.5,44.8333 99.5,43.5C 95.9161,43.9754 92.5828,44.9754 89.5,46.5C 87.2655,45.5531 84.9322,44.8864 82.5,44.5C 74.1396,48.4487 65.8063,48.4487 57.5,44.5C 54.0763,45.3637 50.743,46.5304 47.5,48C 46.6634,49.0113 46.33,50.1779 46.5,51.5C 45.7321,52.2625 45.2321,53.2625 45,54.5C 44.483,63.8445 44.6497,73.1778 45.5,82.5C 47.4878,82.8271 49.4878,83.1604 51.5,83.5C 51.8333,81.925 53.8333,81.0916 57.5,81C 54.8333,79.6667 52.1667,78.3333 49.5,77C 53.129,77.1097 56.7956,77.2764 60.5,77.5C 60.157,73.5623 58.157,72.5623 54.5,74.5C 53.6143,73.675 53.281,72.675 53.5,71.5C 56.7311,72.1814 60.0644,72.3481 63.5,72C 64.3805,72.7083 65.0472,73.5416 65.5,74.5C 65.0618,74.4346 64.7284,74.6012 64.5,75C 65.8333,76 67.1667,77 68.5,78C 68.1667,78.3333 67.8333,78.6667 67.5,79C 68.7932,79.49 70.1266,79.6567 71.5,79.5C 72.1697,83.8614 74.503,87.1947 78.5,89.5C 78.2907,90.086 77.9574,90.586 77.5,91C 78.0349,94.5588 79.3682,97.7254 81.5,100.5C 76.6857,94.8513 71.6857,89.3513 66.5,84C 62.7656,84.6741 58.9323,85.1741 55,85.5C 52.4494,85.3751 49.9494,85.0418 47.5,84.5C 46.5041,84.5858 45.6708,84.2524 45,83.5C 43.4501,72.2166 43.1167,60.8833 44,49.5C 44.1912,45.1489 46.3578,42.4823 50.5,41.5C 58.1419,41.0561 65.6419,41.7227 73,43.5C 80.2056,40.8287 87.7056,39.4954 95.5,39.5 Z"/></g>
<g><path style="opacity:1" fill="#edc29b" d="M 93.5,56.5 C 92.021,58.7205 90.6877,61.0538 89.5,63.5C 88.596,64.209 88.2627,65.209 88.5,66.5C 87.596,65.791 87.2627,64.791 87.5,63.5C 84.9382,62.6285 82.2716,62.6285 79.5,63.5C 80.0421,67.5443 79.2088,71.211 77,74.5C 73.4544,73.3111 69.6211,73.3111 65.5,74.5C 65.0472,73.5416 64.3805,72.7083 63.5,72C 60.0644,72.3481 56.7311,72.1814 53.5,71.5C 53.281,72.675 53.6143,73.675 54.5,74.5C 58.157,72.5623 60.157,73.5623 60.5,77.5C 56.7956,77.2764 53.129,77.1097 49.5,77C 52.1667,78.3333 54.8333,79.6667 57.5,81C 53.8333,81.0916 51.8333,81.925 51.5,83.5C 49.4878,83.1604 47.4878,82.8271 45.5,82.5C 44.6497,73.1778 44.483,63.8445 45,54.5C 45.2321,53.2625 45.7321,52.2625 46.5,51.5C 45.9134,58.7249 46.7468,65.7249 49,72.5C 52.4699,70.3026 56.3033,68.9692 60.5,68.5C 61.1667,67.1667 62.1667,66.1667 63.5,65.5C 65.8954,68.3693 68.8954,69.536 72.5,69C 74.7121,66.0788 76.5455,62.9121 78,59.5C 81.4098,57.1059 83.5765,53.9393 84.5,50C 84.1667,49.6667 83.8333,49.3333 83.5,49C 85.5018,47.9808 87.5018,47.1475 89.5,46.5C 92.5828,44.9754 95.9161,43.9754 99.5,43.5C 99.5,44.8333 99.5,46.1667 99.5,47.5C 94.4455,48.2514 92.4455,51.2514 93.5,56.5 Z"/></g>
<g><path style="opacity:1" fill="#ba7f57" d="M 95.5,39.5 C 100.305,38.5128 105.305,38.1795 110.5,38.5C 110.833,38.5 111.167,38.5 111.5,38.5C 110.9,39.8999 109.9,40.8999 108.5,41.5C 108.167,41.5 107.833,41.5 107.5,41.5C 105.983,41.5106 104.816,42.1772 104,43.5C 103.505,46.5314 103.671,49.5314 104.5,52.5C 100.307,52.3617 97.9732,54.3617 97.5,58.5C 96.7784,58.0825 96.2784,57.4158 96,56.5C 93.8381,62.6031 93.1714,68.9364 94,75.5C 94.1909,73.2922 94.6909,71.2922 95.5,69.5C 95.298,71.9496 95.6314,74.283 96.5,76.5C 95.5028,76.4701 94.8361,76.9701 94.5,78C 95.2223,81.171 95.8889,84.3377 96.5,87.5C 94.6207,86.1032 92.9541,84.4365 91.5,82.5C 91.4094,73.7672 92.0761,65.1006 93.5,56.5C 95.1432,54.0269 97.3098,52.0269 100,50.5C 100.89,46.6994 102.057,43.0328 103.5,39.5C 100.833,39.5 98.1667,39.5 95.5,39.5 Z"/></g>
<g><path style="opacity:1" fill="#c1997e" d="M 138.5,66.5 C 141.218,70.7596 140.884,74.9263 137.5,79C 140.3,88.0363 136.967,92.8696 127.5,93.5C 125.585,93.7845 123.919,93.4511 122.5,92.5C 128.894,92.6463 133.227,89.813 135.5,84C 134.899,82.395 133.899,81.0616 132.5,80C 122.037,78.966 111.704,79.466 101.5,81.5C 101.611,80.8826 101.944,80.3826 102.5,80C 101.058,79.6232 100.058,78.7899 99.5,77.5C 111.221,77.8872 122.887,77.3872 134.5,76C 136.291,73.8938 136.958,71.3938 136.5,68.5C 136.5,67.1667 137.167,66.5 138.5,66.5 Z"/></g>
<g><path style="opacity:1" fill="#aa6b45" d="M 96.5,76.5 C 97.391,77.1098 98.391,77.4431 99.5,77.5C 100.058,78.7899 101.058,79.6232 102.5,80C 101.944,80.3826 101.611,80.8826 101.5,81.5C 99.9044,85.038 100.571,88.038 103.5,90.5C 102.001,91.494 100.334,91.494 98.5,90.5C 97.0937,90.0269 96.427,89.0269 96.5,87.5C 95.8889,84.3377 95.2223,81.171 94.5,78C 94.8361,76.9701 95.5028,76.4701 96.5,76.5 Z"/></g>
<g><path style="opacity:1" fill="#ebbb98" d="M 122.5,92.5 C 116.411,92.2249 110.411,91.5583 104.5,90.5C 104.167,90.5 103.833,90.5 103.5,90.5C 100.571,88.038 99.9044,85.038 101.5,81.5C 111.704,79.466 122.037,78.966 132.5,80C 133.899,81.0616 134.899,82.395 135.5,84C 133.227,89.813 128.894,92.6463 122.5,92.5 Z"/></g>
<g><path style="opacity:1" fill="#e9cda6" d="M 109.5,80.5 C 112.85,80.335 116.183,80.5017 119.5,81C 121.78,81.2326 123.78,82.066 125.5,83.5C 123.365,85.854 120.865,87.5207 118,88.5C 114.825,88.0541 111.658,87.5541 108.5,87C 107.09,86.6322 106.09,85.7989 105.5,84.5C 106.867,83.16 108.2,81.8267 109.5,80.5 Z"/></g>
<g><path style="opacity:0.996" fill="#a17457" d="M 98.5,90.5 C 100.334,91.494 102.001,91.494 103.5,90.5C 103.833,90.5 104.167,90.5 104.5,90.5C 103.74,91.8933 103.074,93.3933 102.5,95C 103.358,99.7948 103.691,104.628 103.5,109.5C 101.631,103.952 100.298,98.285 99.5,92.5C 99.1667,91.8333 98.8333,91.1667 98.5,90.5 Z"/></g>
<g><path style="opacity:1" fill="#d9a37e" d="M 99.5,92.5 C 100.298,98.285 101.631,103.952 103.5,109.5C 103.328,110.492 103.662,111.158 104.5,111.5C 106.792,119.956 105.458,127.623 100.5,134.5C 102.038,129.996 103.038,125.329 103.5,120.5C 105.06,112.147 101.726,108.481 93.5,109.5C 93.238,108.022 93.5713,106.689 94.5,105.5C 98.6814,102.245 100.348,97.9118 99.5,92.5 Z"/></g>
<g><path style="opacity:0.965" fill="#c8aa98" d="M 104.5,90.5 C 110.411,91.5583 116.411,92.2249 122.5,92.5C 123.919,93.4511 125.585,93.7845 127.5,93.5C 119.744,94.3062 111.911,94.6396 104,94.5C 105.032,103.505 106.532,112.505 108.5,121.5C 108.388,126.844 106.721,131.511 103.5,135.5C 105.432,131.033 106.766,126.366 107.5,121.5C 107.11,117.277 106.11,113.943 104.5,111.5C 103.662,111.158 103.328,110.492 103.5,109.5C 103.691,104.628 103.358,99.7948 102.5,95C 103.074,93.3933 103.74,91.8933 104.5,90.5 Z"/></g>
<g><path style="opacity:1" fill="#eec098" d="M 89.5,63.5 C 89.334,68.8437 89.5006,74.1771 90,79.5C 90.2321,80.7375 90.7321,81.7375 91.5,82.5C 92.9541,84.4365 94.6207,86.1032 96.5,87.5C 96.427,89.0269 97.0937,90.0269 98.5,90.5C 98.8333,91.1667 99.1667,91.8333 99.5,92.5C 100.348,97.9118 98.6814,102.245 94.5,105.5C 93.5713,106.689 93.238,108.022 93.5,109.5C 101.726,108.481 105.06,112.147 103.5,120.5C 103.038,125.329 102.038,129.996 100.5,134.5C 99.8333,134.833 99.1667,135.167 98.5,135.5C 96.1432,135.663 93.8098,135.497 91.5,135C 90.2298,134.1 89.2298,132.934 88.5,131.5C 87.5023,123.528 87.169,115.528 87.5,107.5C 88.8221,107.67 89.9887,107.337 91,106.5C 91.2326,104.22 92.066,102.22 93.5,100.5C 92.4958,98.3227 93.1625,97.9893 95.5,99.5C 96.7199,99.1131 97.3865,98.2798 97.5,97C 96.4188,95.6293 95.5855,94.1293 95,92.5C 94.6667,92.8333 94.3333,93.1667 94,93.5C 92.6482,91.5676 90.8149,90.2343 88.5,89.5C 88.0223,81.9778 88.0223,74.3111 88.5,66.5C 88.2627,65.209 88.596,64.209 89.5,63.5 Z"/></g>
<g><path style="opacity:1" fill="#d5a985" d="M 81.5,101.5 C 83.5086,103.543 85.5086,105.543 87.5,107.5C 87.169,115.528 87.5023,123.528 88.5,131.5C 89.2298,132.934 90.2298,134.1 91.5,135C 93.8098,135.497 96.1432,135.663 98.5,135.5C 94.4119,138.487 90.7453,137.987 87.5,134C 86.7134,126.202 86.2134,118.369 86,110.5C 83.9662,107.766 82.4662,104.766 81.5,101.5 Z"/></g>
<g><path style="opacity:0.259" fill="#cfb8a7" d="M 80.5,106.5 C 82.335,107.122 83.5017,108.456 84,110.5C 84.0933,118.909 84.76,127.243 86,135.5C 86.8333,136.333 87.6667,137.167 88.5,138C 92.1516,138.499 95.8183,138.665 99.5,138.5C 95.6888,139.645 91.6888,139.812 87.5,139C 86.6667,138.167 85.8333,137.333 85,136.5C 83.76,128.243 83.0933,119.909 83,111.5C 82.1534,109.807 81.3201,108.14 80.5,106.5 Z"/></g>
<g><path style="opacity:0.973" fill="#ae8a72" d="M 81.5,100.5 C 81.5,100.833 81.5,101.167 81.5,101.5C 82.4662,104.766 83.9662,107.766 86,110.5C 86.2134,118.369 86.7134,126.202 87.5,134C 90.7453,137.987 94.4119,138.487 98.5,135.5C 99.1667,135.167 99.8333,134.833 100.5,134.5C 105.458,127.623 106.792,119.956 104.5,111.5C 106.11,113.943 107.11,117.277 107.5,121.5C 106.766,126.366 105.432,131.033 103.5,135.5C 102.738,137.262 101.404,138.262 99.5,138.5C 95.8183,138.665 92.1516,138.499 88.5,138C 87.6667,137.167 86.8333,136.333 86,135.5C 84.76,127.243 84.0933,118.909 84,110.5C 83.5017,108.456 82.335,107.122 80.5,106.5C 76.8493,99.6669 72.1826,93.5003 66.5,88C 63.8428,87.8253 61.1761,87.9919 58.5,88.5C 58.9175,87.7784 59.5842,87.2784 60.5,87C 55.7197,87.1084 51.3864,86.275 47.5,84.5C 49.9494,85.0418 52.4494,85.3751 55,85.5C 58.9323,85.1741 62.7656,84.6741 66.5,84C 71.6857,89.3513 76.6857,94.8513 81.5,100.5 Z"/></g>
</svg>
