<?xml version="1.0" encoding="UTF-8"?>
<!DOCTYPE svg PUBLIC "-//W3C//DTD SVG 1.1//EN" "http://www.w3.org/Graphics/SVG/1.1/DTD/svg11.dtd">
<svg xmlns="http://www.w3.org/2000/svg" version="1.1" width="146px" height="138px" style="shape-rendering:geometricPrecision; text-rendering:geometricPrecision; image-rendering:optimizeQuality; fill-rule:evenodd; clip-rule:evenodd" xmlns:xlink="http://www.w3.org/1999/xlink">
<g><path style="opacity:0.224" fill="#e0c8b9" d="M 73.5,12.5 C 72.5,14.1667 71.1667,15.5 69.5,16.5C 69.8333,14.1667 71.1667,12.8333 73.5,12.5 Z"/></g>
<g><path style="opacity:0.812" fill="#b99779" d="M 82.5,12.5 C 87.131,13.7976 90.131,16.7976 91.5,21.5C 92.1266,26.1408 92.4599,30.8075 92.5,35.5C 92.6747,37.6208 92.3414,39.6208 91.5,41.5C 90.8333,41.5 90.1667,41.5 89.5,41.5C 90.5267,35.3396 90.5267,29.3396 89.5,23.5C 87.189,16.2638 82.189,13.2638 74.5,14.5C 74.6107,13.8826 74.944,13.3826 75.5,13C 77.8098,12.5034 80.1432,12.3367 82.5,12.5 Z"/></g>
<g><path style="opacity:1" fill="#eebf8c" d="M 74.5,14.5 C 82.189,13.2638 87.189,16.2638 89.5,23.5C 89.6653,27.1817 89.4986,30.8484 89,34.5C 88.6667,34.8333 88.3333,35.1667 88,35.5C 87.7679,34.2625 87.2679,33.2625 86.5,32.5C 86.7845,30.5853 86.4511,28.9187 85.5,27.5C 85.1326,22.2925 82.4659,19.7925 77.5,20C 77,20.5 76.5,21 76,21.5C 75.5017,24.8168 75.335,28.1501 75.5,31.5C 74.8333,31.5 74.1667,31.5 73.5,31.5C 72.71,32.6085 72.21,33.9419 72,35.5C 71.79,33.9419 71.29,32.6085 70.5,31.5C 70.3343,27.1539 70.501,22.8206 71,18.5C 71.6897,16.6498 72.8564,15.3164 74.5,14.5 Z"/></g>
<g><path style="opacity:1" fill="#f5d4ac" d="M 85.5,27.5 C 85.5,28.1667 85.5,28.8333 85.5,29.5C 84.0735,27.8516 83.2401,25.8516 83,23.5C 82.4387,22.9781 81.772,22.6448 81,22.5C 79.7263,23.5353 78.5596,24.702 77.5,26C 77.8333,26.3333 78.1667,26.6667 78.5,27C 77.7334,28.4705 77.0668,29.9705 76.5,31.5C 76.1667,31.5 75.8333,31.5 75.5,31.5C 75.335,28.1501 75.5017,24.8168 76,21.5C 76.5,21 77,20.5 77.5,20C 82.4659,19.7925 85.1326,22.2925 85.5,27.5 Z"/></g>
<g><path style="opacity:0.22" fill="#d8c4b6" d="M 69.5,16.5 C 69.6664,24.84 69.4997,33.1733 69,41.5C 68.6174,42.056 68.1174,42.3893 67.5,42.5C 67.9708,33.6702 68.6375,25.0035 69.5,16.5 Z"/></g>
<g><path style="opacity:1" fill="#f5d8b6" d="M 85.5,29.5 C 85.3259,31.861 84.9926,34.1944 84.5,36.5C 82.1737,37.1447 80.507,38.478 79.5,40.5C 77.89,37.7967 76.89,34.7967 76.5,31.5C 77.0668,29.9705 77.7334,28.4705 78.5,27C 78.1667,26.6667 77.8333,26.3333 77.5,26C 78.5596,24.702 79.7263,23.5353 81,22.5C 81.772,22.6448 82.4387,22.9781 83,23.5C 83.2401,25.8516 84.0735,27.8516 85.5,29.5 Z"/></g>
<g><path style="opacity:0.847" fill="#c7a788" d="M 82.5,12.5 C 80.1432,12.3367 77.8098,12.5034 75.5,13C 74.944,13.3826 74.6107,13.8826 74.5,14.5C 72.8564,15.3164 71.6897,16.6498 71,18.5C 70.501,22.8206 70.3343,27.1539 70.5,31.5C 70.6655,35.5138 70.4988,39.5138 70,43.5C 69.1482,44.5707 68.3149,45.5707 67.5,46.5C 67.5,45.1667 67.5,43.8333 67.5,42.5C 68.1174,42.3893 68.6174,42.056 69,41.5C 69.4997,33.1733 69.6664,24.84 69.5,16.5C 71.1667,15.5 72.5,14.1667 73.5,12.5C 76.5,11.1667 79.5,11.1667 82.5,12.5 Z"/></g>
<g><path style="opacity:0.082" fill="#e1d3bf" d="M 91.5,21.5 C 93.558,26.0718 93.8913,30.7385 92.5,35.5C 92.4599,30.8075 92.1266,26.1408 91.5,21.5 Z"/></g>
<g><path style="opacity:1" fill="#ddb384" d="M 89.5,23.5 C 90.5267,29.3396 90.5267,35.3396 89.5,41.5C 88.7487,44.246 87.7487,46.9127 86.5,49.5C 87.7246,43.826 87.7246,38.1594 86.5,32.5C 87.2679,33.2625 87.7679,34.2625 88,35.5C 88.3333,35.1667 88.6667,34.8333 89,34.5C 89.4986,30.8484 89.6653,27.1817 89.5,23.5 Z"/></g>
<g><path style="opacity:1" fill="#f7d6b5" d="M 73.5,31.5 C 74.1667,31.5 74.8333,31.5 75.5,31.5C 75.8333,31.5 76.1667,31.5 76.5,31.5C 76.89,34.7967 77.89,37.7967 79.5,40.5C 79.9382,40.4346 80.2716,40.6012 80.5,41C 79.8333,41.3333 79.1667,41.6667 78.5,42C 80.2226,44.9435 81.2226,48.1102 81.5,51.5C 82.0899,52.766 82.5899,54.0993 83,55.5C 83.6543,54.3044 84.1543,54.3044 84.5,55.5C 83.9649,57.261 82.9649,58.5943 81.5,59.5C 79.1104,59.3152 78.1104,57.9818 78.5,55.5C 78.7092,54.0055 79.3759,52.8388 80.5,52C 80,51.5 79.5,51 79,50.5C 77.5861,51.4132 76.0861,51.4132 74.5,50.5C 73.209,50.7373 72.209,50.404 71.5,49.5C 72.8734,49.6567 74.2068,49.49 75.5,49C 74.271,46.2621 72.9377,43.5955 71.5,41C 73.3444,38.1963 74.0111,35.0297 73.5,31.5 Z"/></g>
<g><path style="opacity:1" fill="#f7d3af" d="M 70.5,31.5 C 71.29,32.6085 71.79,33.9419 72,35.5C 72.21,33.9419 72.71,32.6085 73.5,31.5C 74.0111,35.0297 73.3444,38.1963 71.5,41C 72.9377,43.5955 74.271,46.2621 75.5,49C 74.2068,49.49 72.8734,49.6567 71.5,49.5C 70.715,45.2917 69.8817,44.9584 69,48.5C 68.6174,47.944 68.1174,47.6107 67.5,47.5C 67.5,47.1667 67.5,46.8333 67.5,46.5C 68.3149,45.5707 69.1482,44.5707 70,43.5C 70.4988,39.5138 70.6655,35.5138 70.5,31.5 Z"/></g>
<g><path style="opacity:1" fill="#f5d3b0" d="M 84.5,36.5 C 83.6039,41.6471 82.6039,46.6471 81.5,51.5C 81.2226,48.1102 80.2226,44.9435 78.5,42C 79.1667,41.6667 79.8333,41.3333 80.5,41C 80.2716,40.6012 79.9382,40.4346 79.5,40.5C 80.507,38.478 82.1737,37.1447 84.5,36.5 Z"/></g>
<g><path style="opacity:1" fill="#f5cba4" d="M 85.5,27.5 C 86.4511,28.9187 86.7845,30.5853 86.5,32.5C 87.7246,38.1594 87.7246,43.826 86.5,49.5C 86.69,53.0318 86.0233,56.3652 84.5,59.5C 83.1667,60.8333 81.8333,62.1667 80.5,63.5C 80.8333,62.1667 81.1667,60.8333 81.5,59.5C 82.9649,58.5943 83.9649,57.261 84.5,55.5C 84.1543,54.3044 83.6543,54.3044 83,55.5C 82.5899,54.0993 82.0899,52.766 81.5,51.5C 82.6039,46.6471 83.6039,41.6471 84.5,36.5C 84.9926,34.1944 85.3259,31.861 85.5,29.5C 85.5,28.8333 85.5,28.1667 85.5,27.5 Z"/></g>
<g><path style="opacity:0.216" fill="#ddc7b6" d="M 89.5,41.5 C 90.1667,41.5 90.8333,41.5 91.5,41.5C 91.1417,44.6888 90.475,47.6888 89.5,50.5C 89.5,47.5 89.5,44.5 89.5,41.5 Z"/></g>
<g><path style="opacity:0.659" fill="#b6967e" d="M 89.5,41.5 C 89.5,44.5 89.5,47.5 89.5,50.5C 88.6204,52.1368 87.9537,53.9701 87.5,56C 87.5699,56.7648 87.9033,57.2648 88.5,57.5C 88.5,57.8333 88.5,58.1667 88.5,58.5C 87.0413,58.4326 85.7079,58.7659 84.5,59.5C 86.0233,56.3652 86.69,53.0318 86.5,49.5C 87.7487,46.9127 88.7487,44.246 89.5,41.5 Z"/></g>
<g><path style="opacity:1" fill="#fae4cd" d="M 67.5,53.5 C 73.6628,53.5671 74.9961,56.5671 71.5,62.5C 70.609,63.1098 69.609,63.4431 68.5,63.5C 68.9251,60.8864 70.2584,58.8864 72.5,57.5C 71.7579,56.7132 70.9246,56.0465 70,55.5C 69.3907,59.2832 67.224,60.9498 63.5,60.5C 65.5638,58.5082 66.8971,56.1748 67.5,53.5 Z"/></g>
<g><path style="opacity:0.967" fill="#dbc5b4" d="M 67.5,42.5 C 67.5,43.8333 67.5,45.1667 67.5,46.5C 67.5,46.8333 67.5,47.1667 67.5,47.5C 67.5,47.8333 67.5,48.1667 67.5,48.5C 64.9866,52.8578 61.9866,56.8578 58.5,60.5C 58.5654,60.0618 58.3988,59.7284 58,59.5C 56.549,61.4641 54.7157,62.7974 52.5,63.5C 57.9202,56.755 62.9202,49.755 67.5,42.5 Z"/></g>
<g><path style="opacity:1" fill="#f8d3b2" d="M 74.5,50.5 C 76.0861,51.4132 77.5861,51.4132 79,50.5C 79.5,51 80,51.5 80.5,52C 79.3759,52.8388 78.7092,54.0055 78.5,55.5C 78.1104,57.9818 79.1104,59.3152 81.5,59.5C 81.1667,60.8333 80.8333,62.1667 80.5,63.5C 79.9993,66.4217 79.666,69.4217 79.5,72.5C 78.5,72.5 77.5,72.5 76.5,72.5C 76.7214,71.2652 77.3881,70.2652 78.5,69.5C 77.2671,63.9093 76.4338,58.2426 76,52.5C 75.2828,51.9558 74.7828,51.2891 74.5,50.5 Z"/></g>
<g><path style="opacity:0.114" fill="#ebdaca" d="M 89.5,50.5 C 89.7394,52.4672 89.4061,54.3005 88.5,56C 90.8098,56.4966 93.1432,56.6633 95.5,56.5C 93.3926,57.4682 91.0593,57.8016 88.5,57.5C 87.9033,57.2648 87.5699,56.7648 87.5,56C 87.9537,53.9701 88.6204,52.1368 89.5,50.5 Z"/></g>
<g><path style="opacity:0.874" fill="#cbb096" d="M 95.5,56.5 C 102.564,56.758 109.564,57.5914 116.5,59C 118.751,59.7475 120.084,61.2475 120.5,63.5C 119.18,62.0582 117.514,61.3915 115.5,61.5C 115.5,61.1667 115.5,60.8333 115.5,60.5C 107.684,59.5076 99.6841,59.1743 91.5,59.5C 90.791,58.596 89.791,58.2627 88.5,58.5C 88.5,58.1667 88.5,57.8333 88.5,57.5C 91.0593,57.8016 93.3926,57.4682 95.5,56.5 Z"/></g>
<g><path style="opacity:0.29" fill="#e6d6c8" d="M 95.5,56.5 C 103.563,55.1934 111.563,56.0267 119.5,59C 123.918,62.7564 124.585,67.0897 121.5,72C 122.252,72.6708 122.586,73.5041 122.5,74.5C 121.12,74.0377 120.453,73.0377 120.5,71.5C 121.663,68.6731 121.663,66.0065 120.5,63.5C 120.084,61.2475 118.751,59.7475 116.5,59C 109.564,57.5914 102.564,56.758 95.5,56.5 Z"/></g>
<g><path style="opacity:1" fill="#fadbbc" d="M 71.5,49.5 C 72.209,50.404 73.209,50.7373 74.5,50.5C 74.7828,51.2891 75.2828,51.9558 76,52.5C 76.4338,58.2426 77.2671,63.9093 78.5,69.5C 77.3881,70.2652 76.7214,71.2652 76.5,72.5C 75.5,73.8333 74.5,75.1667 73.5,76.5C 72.8333,76.8333 72.1667,77.1667 71.5,77.5C 71.5,76.1667 71.5,74.8333 71.5,73.5C 74.0967,72.0675 75.7633,69.9009 76.5,67C 76.7489,64.537 76.0822,62.8703 74.5,62C 76.1287,58.3679 75.7954,55.0346 73.5,52C 71.8659,51.5065 70.1992,51.3398 68.5,51.5C 67.8902,50.609 67.5569,49.609 67.5,48.5C 67.5,48.1667 67.5,47.8333 67.5,47.5C 68.1174,47.6107 68.6174,47.944 69,48.5C 69.8817,44.9584 70.715,45.2917 71.5,49.5 Z"/></g>
<g><path style="opacity:1" fill="#f7dac1" d="M 67.5,48.5 C 67.5569,49.609 67.8902,50.609 68.5,51.5C 68.1667,52.1667 67.8333,52.8333 67.5,53.5C 66.8971,56.1748 65.5638,58.5082 63.5,60.5C 62.1667,61.8333 60.8333,63.1667 59.5,64.5C 58.5,64.5 57.5,64.5 56.5,64.5C 57.1667,63.1667 57.8333,61.8333 58.5,60.5C 61.9866,56.8578 64.9866,52.8578 67.5,48.5 Z"/></g>
<g><path style="opacity:1" fill="#fadebb" d="M 92.5,61.5 C 91.5868,63.0861 91.5868,64.5861 92.5,66C 98.2179,66.7401 103.885,66.5735 109.5,65.5C 107.967,67.2451 105.967,68.2451 103.5,68.5C 99.4183,68.6564 95.4183,68.1564 91.5,67C 89.8446,65.5557 89.178,63.7224 89.5,61.5C 90.5,61.5 91.5,61.5 92.5,61.5 Z"/></g>
<g><path style="opacity:0.392" fill="#e8d6cb" d="M 52.5,63.5 C 51.9032,64.1386 51.0698,64.472 50,64.5C 44.9976,62.7866 39.8309,62.1199 34.5,62.5C 36.3432,61.7171 38.3432,61.0505 40.5,60.5C 44.5226,61.5177 48.5226,62.5177 52.5,63.5 Z"/></g>
<g><path style="opacity:1" fill="#fae6d3" d="M 68.5,63.5 C 65.9798,65.9181 63.9798,68.5848 62.5,71.5C 61.0047,71.5852 60.0047,70.9185 59.5,69.5C 60.0522,67.9974 60.0522,66.3307 59.5,64.5C 60.8333,63.1667 62.1667,61.8333 63.5,60.5C 67.224,60.9498 69.3907,59.2832 70,55.5C 70.9246,56.0465 71.7579,56.7132 72.5,57.5C 70.2584,58.8864 68.9251,60.8864 68.5,63.5 Z"/></g>
<g><path style="opacity:1" fill="#f7dfc5" d="M 71.5,62.5 C 71.5,63.1667 71.5,63.8333 71.5,64.5C 70.325,64.281 69.325,64.6143 68.5,65.5C 65.4371,70.022 63.7704,75.022 63.5,80.5C 62.5,80.5 61.5,80.5 60.5,80.5C 60.5,79.8333 60.5,79.1667 60.5,78.5C 61.9238,76.4855 62.5905,74.1522 62.5,71.5C 63.9798,68.5848 65.9798,65.9181 68.5,63.5C 69.609,63.4431 70.609,63.1098 71.5,62.5 Z"/></g>
<g><path style="opacity:1" fill="#f5dcbd" d="M 71.5,64.5 C 71.5,66.5 71.5,68.5 71.5,70.5C 70.4168,70.5394 69.4168,70.8728 68.5,71.5C 67.5824,75.0097 65.9158,78.0097 63.5,80.5C 63.7704,75.022 65.4371,70.022 68.5,65.5C 69.325,64.6143 70.325,64.281 71.5,64.5 Z"/></g>
<g><path style="opacity:1" fill="#f6d7b7" d="M 56.5,64.5 C 56.4142,65.4959 56.7476,66.3292 57.5,67C 55.9586,68.3712 54.6253,69.8712 53.5,71.5C 53.1667,71.5 52.8333,71.5 52.5,71.5C 48.2691,71.889 44.4358,70.889 41,68.5C 39.9887,69.3366 38.8221,69.67 37.5,69.5C 37.5674,70.9587 37.2341,72.2921 36.5,73.5C 36.1667,73.5 35.8333,73.5 35.5,73.5C 35.5268,67.4249 38.5268,64.7582 44.5,65.5C 48.6484,66.9816 52.6484,66.6482 56.5,64.5 Z"/></g>
<g><path style="opacity:1" fill="#fae3c8" d="M 106.5,61.5 C 107.833,61.5 109.167,61.5 110.5,61.5C 110.567,62.9587 110.234,64.2921 109.5,65.5C 103.885,66.5735 98.2179,66.7401 92.5,66C 91.5868,64.5861 91.5868,63.0861 92.5,61.5C 97.1667,60.1667 101.833,60.1667 106.5,61.5 Z"/></g>
<g><path style="opacity:1" fill="#fde5ce" d="M 56.5,64.5 C 57.5,64.5 58.5,64.5 59.5,64.5C 60.0522,66.3307 60.0522,67.9974 59.5,69.5C 60.0047,70.9185 61.0047,71.5852 62.5,71.5C 62.5905,74.1522 61.9238,76.4855 60.5,78.5C 59.2412,76.3956 57.7412,74.3956 56,72.5C 55.3292,73.2524 54.4959,73.5858 53.5,73.5C 53.5,72.8333 53.5,72.1667 53.5,71.5C 54.6253,69.8712 55.9586,68.3712 57.5,67C 56.7476,66.3292 56.4142,65.4959 56.5,64.5 Z"/></g>
<g><path style="opacity:1" fill="#f7d0a8" d="M 115.5,60.5 C 115.5,60.8333 115.5,61.1667 115.5,61.5C 112.227,61.4706 111.56,62.8039 113.5,65.5C 113.547,67.0377 112.88,68.0377 111.5,68.5C 107.589,69.3825 103.756,70.3825 100,71.5C 97.9579,71.3845 95.9579,71.0512 94,70.5C 92.9701,70.1639 92.4701,69.4972 92.5,68.5C 95.3319,69.1003 98.1652,69.7669 101,70.5C 102.301,70.3613 103.134,69.6946 103.5,68.5C 105.967,68.2451 107.967,67.2451 109.5,65.5C 111.256,64.4479 111.923,62.7812 111.5,60.5C 112.833,60.5 114.167,60.5 115.5,60.5 Z"/></g>
<g><path style="opacity:1" fill="#f5dcc0" d="M 68.5,51.5 C 70.1992,51.3398 71.8659,51.5065 73.5,52C 75.7954,55.0346 76.1287,58.3679 74.5,62C 76.0822,62.8703 76.7489,64.537 76.5,67C 75.7633,69.9009 74.0967,72.0675 71.5,73.5C 71.5,72.5 71.5,71.5 71.5,70.5C 71.5,68.5 71.5,66.5 71.5,64.5C 71.5,63.8333 71.5,63.1667 71.5,62.5C 74.9961,56.5671 73.6628,53.5671 67.5,53.5C 67.8333,52.8333 68.1667,52.1667 68.5,51.5 Z"/></g>
<g><path style="opacity:1" fill="#f5d2ad" d="M 91.5,59.5 C 99.6841,59.1743 107.684,59.5076 115.5,60.5C 114.167,60.5 112.833,60.5 111.5,60.5C 111.923,62.7812 111.256,64.4479 109.5,65.5C 110.234,64.2921 110.567,62.9587 110.5,61.5C 109.167,61.5 107.833,61.5 106.5,61.5C 101.833,60.1667 97.1667,60.1667 92.5,61.5C 91.5,61.5 90.5,61.5 89.5,61.5C 89.178,63.7224 89.8446,65.5557 91.5,67C 95.4183,68.1564 99.4183,68.6564 103.5,68.5C 103.134,69.6946 102.301,70.3613 101,70.5C 98.1652,69.7669 95.3319,69.1003 92.5,68.5C 88.4904,67.5255 87.1571,65.1922 88.5,61.5C 88.9731,60.0937 89.9731,59.427 91.5,59.5 Z"/></g>
<g><path style="opacity:1" fill="#fae8d1" d="M 106.5,61.5 C 106.414,62.4959 106.748,63.3292 107.5,64C 103.27,65.2899 98.9362,65.7899 94.5,65.5C 94.33,64.1779 94.6634,63.0113 95.5,62C 99.1516,61.5014 102.818,61.3347 106.5,61.5 Z"/></g>
<g><path style="opacity:1" fill="#f4c898" d="M 115.5,61.5 C 117.514,61.3915 119.18,62.0582 120.5,63.5C 121.226,67.307 119.893,69.9737 116.5,71.5C 114.735,72.4614 112.735,72.7947 110.5,72.5C 110.833,71.1667 111.167,69.8333 111.5,68.5C 112.88,68.0377 113.547,67.0377 113.5,65.5C 111.56,62.8039 112.227,61.4706 115.5,61.5 Z"/></g>
<g><path style="opacity:1" fill="#b5805e" d="M 88.5,58.5 C 89.791,58.2627 90.791,58.596 91.5,59.5C 89.9731,59.427 88.9731,60.0937 88.5,61.5C 87.3065,61.9704 86.6399,62.9704 86.5,64.5C 86.4672,67.1016 87.4672,69.1016 89.5,70.5C 90.5063,71.3957 90.5063,72.0623 89.5,72.5C 87.5853,72.2155 85.9187,72.5489 84.5,73.5C 82.9382,73.7329 81.6049,74.3995 80.5,75.5C 79.791,74.596 78.791,74.2627 77.5,74.5C 78.1667,73.8333 78.8333,73.1667 79.5,72.5C 79.666,69.4217 79.9993,66.4217 80.5,63.5C 81.8333,62.1667 83.1667,60.8333 84.5,59.5C 85.7079,58.7659 87.0413,58.4326 88.5,58.5 Z"/></g>
<g><path style="opacity:1" fill="#a16943" d="M 84.5,61.5 C 85.4767,64.2869 85.81,67.2869 85.5,70.5C 88.4808,70.544 88.8142,70.8773 86.5,71.5C 82.1146,68.9061 81.4479,65.5728 84.5,61.5 Z"/></g>
<g><path style="opacity:1" fill="#f3c69c" d="M 88.5,61.5 C 87.1571,65.1922 88.4904,67.5255 92.5,68.5C 92.4701,69.4972 92.9701,70.1639 94,70.5C 95.9579,71.0512 97.9579,71.3845 100,71.5C 103.756,70.3825 107.589,69.3825 111.5,68.5C 111.167,69.8333 110.833,71.1667 110.5,72.5C 103.323,73.0018 96.3232,72.3351 89.5,70.5C 87.4672,69.1016 86.4672,67.1016 86.5,64.5C 86.6399,62.9704 87.3065,61.9704 88.5,61.5 Z"/></g>
<g><path style="opacity:1" fill="#b88d68" d="M 89.5,70.5 C 96.3232,72.3351 103.323,73.0018 110.5,72.5C 112.735,72.7947 114.735,72.4614 116.5,71.5C 119.248,71.4017 119.914,72.4017 118.5,74.5C 116.097,74.448 113.764,74.7814 111.5,75.5C 104.803,75.4518 98.1361,74.9518 91.5,74C 90.5842,73.7216 89.9175,73.2216 89.5,72.5C 90.5063,72.0623 90.5063,71.3957 89.5,70.5 Z"/></g>
<g><path style="opacity:1" fill="#f6dec2" d="M 52.5,71.5 C 51.0813,72.4511 49.4147,72.7845 47.5,72.5C 47.5391,74.3588 46.7058,75.6921 45,76.5C 43.6896,74.8678 43.1896,73.2012 43.5,71.5C 42.277,70.3861 40.9437,70.2195 39.5,71C 41.2763,72.6708 41.6096,74.5041 40.5,76.5C 41.2739,77.7112 42.1072,77.7112 43,76.5C 43.4828,77.448 43.6495,78.448 43.5,79.5C 45.7224,79.822 47.5557,79.1554 49,77.5C 51.0162,78.9552 51.8495,80.9552 51.5,83.5C 49.5168,83.1568 48.1834,83.8235 47.5,85.5C 45.5544,86.0347 44.5544,87.368 44.5,89.5C 43.8333,89.5 43.1667,89.5 42.5,89.5C 41.6805,86.6946 41.1805,83.6946 41,80.5C 38.4953,78.6765 36.9953,76.3431 36.5,73.5C 37.2341,72.2921 37.5674,70.9587 37.5,69.5C 38.8221,69.67 39.9887,69.3366 41,68.5C 44.4358,70.889 48.2691,71.889 52.5,71.5 Z"/></g>
<g><path style="opacity:1" fill="#fadcbb" d="M 71.5,70.5 C 71.5,71.5 71.5,72.5 71.5,73.5C 71.5,74.8333 71.5,76.1667 71.5,77.5C 72.4132,79.0861 72.4132,80.5861 71.5,82C 69.0912,83.7068 66.4245,84.5402 63.5,84.5C 64.4054,83.0357 64.4054,81.7024 63.5,80.5C 65.9158,78.0097 67.5824,75.0097 68.5,71.5C 69.4168,70.8728 70.4168,70.5394 71.5,70.5 Z"/></g>
<g><path style="opacity:0.531" fill="#caac94" d="M 58.5,60.5 C 57.8333,61.8333 57.1667,63.1667 56.5,64.5C 52.6484,66.6482 48.6484,66.9816 44.5,65.5C 41.5,64.1667 38.5,64.1667 35.5,65.5C 33.9826,65.5106 32.8159,66.1772 32,67.5C 30.0187,71.2239 28.852,75.2239 28.5,79.5C 28.1667,79.5 27.8333,79.5 27.5,79.5C 27.5,77.1667 27.5,74.8333 27.5,72.5C 27.5469,67.4686 29.8802,64.1353 34.5,62.5C 39.8309,62.1199 44.9976,62.7866 50,64.5C 51.0698,64.472 51.9032,64.1386 52.5,63.5C 54.7157,62.7974 56.549,61.4641 58,59.5C 58.3988,59.7284 58.5654,60.0618 58.5,60.5 Z"/></g>
<g><path style="opacity:1" fill="#ecc598" d="M 35.5,65.5 C 33.7678,71.3289 33.1011,77.3289 33.5,83.5C 32.0749,80.0968 31.2415,76.4302 31,72.5C 30.5034,74.8098 30.3367,77.1432 30.5,79.5C 29.8333,79.5 29.1667,79.5 28.5,79.5C 28.852,75.2239 30.0187,71.2239 32,67.5C 32.8159,66.1772 33.9826,65.5106 35.5,65.5 Z"/></g>
<g><path style="opacity:1" fill="#fae5d2" d="M 60.5,78.5 C 60.5,79.1667 60.5,79.8333 60.5,80.5C 58.7163,81.8934 56.7163,82.3934 54.5,82C 53.6198,80.6439 53.2865,79.1439 53.5,77.5C 51.8762,77.6399 50.7096,76.9733 50,75.5C 49.6667,75.8333 49.3333,76.1667 49,76.5C 48.5172,75.552 48.3505,74.552 48.5,73.5C 50.1667,73.5 51.8333,73.5 53.5,73.5C 54.4959,73.5858 55.3292,73.2524 56,72.5C 57.7412,74.3956 59.2412,76.3956 60.5,78.5 Z"/></g>
<g><path style="opacity:1" fill="#a87450" d="M 77.5,74.5 C 78.791,74.2627 79.791,74.596 80.5,75.5C 80.5,77.5 80.5,79.5 80.5,81.5C 80.5674,82.9587 80.2341,84.2921 79.5,85.5C 75.9924,83.5749 74.659,80.5749 75.5,76.5C 75.8333,75.5 76.5,74.8333 77.5,74.5 Z"/></g>
<g><path style="opacity:1" fill="#f4d0a8" d="M 44.5,65.5 C 38.5268,64.7582 35.5268,67.4249 35.5,73.5C 35.5,75.1667 35.5,76.8333 35.5,78.5C 34.5009,84.005 34.5009,89.6716 35.5,95.5C 34.8333,95.5 34.1667,95.5 33.5,95.5C 33.5,91.5 33.5,87.5 33.5,83.5C 33.1011,77.3289 33.7678,71.3289 35.5,65.5C 38.5,64.1667 41.5,64.1667 44.5,65.5 Z"/></g>
<g><path style="opacity:1" fill="#f7e1c9" d="M 52.5,71.5 C 52.8333,71.5 53.1667,71.5 53.5,71.5C 53.5,72.1667 53.5,72.8333 53.5,73.5C 51.8333,73.5 50.1667,73.5 48.5,73.5C 48.3505,74.552 48.5172,75.552 49,76.5C 49.3333,76.1667 49.6667,75.8333 50,75.5C 50.7096,76.9733 51.8762,77.6399 53.5,77.5C 53.2865,79.1439 53.6198,80.6439 54.5,82C 56.7163,82.3934 58.7163,81.8934 60.5,80.5C 58.5161,84.3685 55.5161,85.3685 51.5,83.5C 51.8495,80.9552 51.0162,78.9552 49,77.5C 47.5557,79.1554 45.7224,79.822 43.5,79.5C 43.6495,78.448 43.4828,77.448 43,76.5C 42.1072,77.7112 41.2739,77.7112 40.5,76.5C 41.6096,74.5041 41.2763,72.6708 39.5,71C 40.9437,70.2195 42.277,70.3861 43.5,71.5C 43.1896,73.2012 43.6896,74.8678 45,76.5C 46.7058,75.6921 47.5391,74.3588 47.5,72.5C 49.4147,72.7845 51.0813,72.4511 52.5,71.5 Z"/></g>
<g><path style="opacity:0.125" fill="#ebdcc8" d="M 122.5,74.5 C 123.993,75.3121 124.66,76.6455 124.5,78.5C 124.564,80.5566 123.898,82.2233 122.5,83.5C 123.678,80.4773 123.678,77.4773 122.5,74.5 Z"/></g>
<g><path style="opacity:1" fill="#f6d6b6" d="M 35.5,78.5 C 37.2517,78.4176 38.2517,79.2509 38.5,81C 36.5032,84.6705 36.5032,88.1705 38.5,91.5C 38.4142,92.4959 38.7476,93.3292 39.5,94C 38.5842,94.2784 37.9175,94.7784 37.5,95.5C 36.8333,95.5 36.1667,95.5 35.5,95.5C 34.5009,89.6716 34.5009,84.005 35.5,78.5 Z"/></g>
<g><path style="opacity:1" fill="#f3dab7" d="M 35.5,73.5 C 35.8333,73.5 36.1667,73.5 36.5,73.5C 36.9953,76.3431 38.4953,78.6765 41,80.5C 41.1805,83.6946 41.6805,86.6946 42.5,89.5C 41.4863,90.6737 40.153,91.3404 38.5,91.5C 36.5032,88.1705 36.5032,84.6705 38.5,81C 38.2517,79.2509 37.2517,78.4176 35.5,78.5C 35.5,76.8333 35.5,75.1667 35.5,73.5 Z"/></g>
<g><path style="opacity:1" fill="#f7d3b0" d="M 89.5,72.5 C 89.9175,73.2216 90.5842,73.7216 91.5,74C 98.1361,74.9518 104.803,75.4518 111.5,75.5C 110.972,78.6881 109.305,81.0214 106.5,82.5C 106.5,83.5 106.5,84.5 106.5,85.5C 98.5952,85.7522 90.9285,84.5855 83.5,82C 80.7306,78.8063 81.064,75.9729 84.5,73.5C 85.9187,72.5489 87.5853,72.2155 89.5,72.5 Z"/></g>
<g><path style="opacity:1" fill="#fce6cb" d="M 106.5,82.5 C 101.489,82.6659 96.4889,82.4993 91.5,82C 86.092,79.3302 86.2587,77.1635 92,75.5C 97.8415,76.0563 103.675,76.723 109.5,77.5C 108.048,78.9397 107.048,80.6064 106.5,82.5 Z"/></g>
<g><path style="opacity:1" fill="#f1c798" d="M 118.5,74.5 C 120.302,75.3155 121.302,76.8155 121.5,79C 120.915,81.707 119.582,83.8736 117.5,85.5C 115.5,85.5 113.5,85.5 111.5,85.5C 109.833,85.5 108.167,85.5 106.5,85.5C 106.5,84.5 106.5,83.5 106.5,82.5C 109.305,81.0214 110.972,78.6881 111.5,75.5C 113.764,74.7814 116.097,74.448 118.5,74.5 Z"/></g>
<g><path style="opacity:1" fill="#f5d5b3" d="M 73.5,76.5 C 73.6323,79.5701 73.299,82.5701 72.5,85.5C 68.2249,86.6517 63.8916,87.6517 59.5,88.5C 55.9408,88.7155 52.4408,88.3822 49,87.5C 47.415,88.0439 45.915,88.7106 44.5,89.5C 44.5544,87.368 45.5544,86.0347 47.5,85.5C 50.2724,85.22 52.7724,85.8866 55,87.5C 57.8646,86.5759 60.698,85.5759 63.5,84.5C 66.4245,84.5402 69.0912,83.7068 71.5,82C 72.4132,80.5861 72.4132,79.0861 71.5,77.5C 72.1667,77.1667 72.8333,76.8333 73.5,76.5 Z"/></g>
<g><path style="opacity:1" fill="#f7dec2" d="M 60.5,80.5 C 61.5,80.5 62.5,80.5 63.5,80.5C 64.4054,81.7024 64.4054,83.0357 63.5,84.5C 60.698,85.5759 57.8646,86.5759 55,87.5C 52.7724,85.8866 50.2724,85.22 47.5,85.5C 48.1834,83.8235 49.5168,83.1568 51.5,83.5C 55.5161,85.3685 58.5161,84.3685 60.5,80.5 Z"/></g>
<g><path style="opacity:0.741" fill="#c4a68c" d="M 120.5,63.5 C 121.663,66.0065 121.663,68.6731 120.5,71.5C 120.453,73.0377 121.12,74.0377 122.5,74.5C 123.678,77.4773 123.678,80.4773 122.5,83.5C 121.058,84.8195 120.392,86.4862 120.5,88.5C 120.856,91.5641 120.023,94.2307 118,96.5C 117.501,100.152 117.335,103.818 117.5,107.5C 116.251,109.136 114.584,110.303 112.5,111C 109.487,111.502 106.487,112.002 103.5,112.5C 106.59,111.273 109.59,109.939 112.5,108.5C 115.866,106.38 116.199,104.047 113.5,101.5C 114.398,100.842 115.398,100.176 116.5,99.5C 116.043,98.7025 115.376,98.3691 114.5,98.5C 114.5,98.1667 114.5,97.8333 114.5,97.5C 117.407,95.6855 118.741,93.0188 118.5,89.5C 118.768,87.901 118.434,86.5676 117.5,85.5C 119.582,83.8736 120.915,81.707 121.5,79C 121.302,76.8155 120.302,75.3155 118.5,74.5C 119.914,72.4017 119.248,71.4017 116.5,71.5C 119.893,69.9737 121.226,67.307 120.5,63.5 Z"/></g>
<g><path style="opacity:1" fill="#f2caa5" d="M 76.5,72.5 C 77.5,72.5 78.5,72.5 79.5,72.5C 78.8333,73.1667 78.1667,73.8333 77.5,74.5C 76.5,74.8333 75.8333,75.5 75.5,76.5C 74.8476,77.4486 74.5143,78.6153 74.5,80C 74.5757,82.7384 75.5757,85.0717 77.5,87C 77.2568,87.9021 76.9234,88.7354 76.5,89.5C 75.6252,91.5681 74.4585,93.5681 73,95.5C 72.6174,94.944 72.1174,94.6107 71.5,94.5C 72.023,91.4697 72.3563,88.4697 72.5,85.5C 73.299,82.5701 73.6323,79.5701 73.5,76.5C 74.5,75.1667 75.5,73.8333 76.5,72.5 Z"/></g>
<g><path style="opacity:1" fill="#ebbc93" d="M 84.5,73.5 C 81.064,75.9729 80.7306,78.8063 83.5,82C 90.9285,84.5855 98.5952,85.7522 106.5,85.5C 108.167,85.5 109.833,85.5 111.5,85.5C 103.599,86.8129 95.5985,86.8129 87.5,85.5C 84.7052,84.937 82.3718,83.6037 80.5,81.5C 80.5,79.5 80.5,77.5 80.5,75.5C 81.6049,74.3995 82.9382,73.7329 84.5,73.5 Z"/></g>
<g><path style="opacity:1" fill="#b68a61" d="M 87.5,85.5 C 95.5985,86.8129 103.599,86.8129 111.5,85.5C 113.5,85.5 115.5,85.5 117.5,85.5C 118.434,86.5676 118.768,87.901 118.5,89.5C 116.283,88.6314 113.95,88.298 111.5,88.5C 102.833,88.5 94.1667,88.5 85.5,88.5C 84.8333,88.5 84.1667,88.5 83.5,88.5C 85.2191,87.9779 86.5525,86.9779 87.5,85.5 Z"/></g>
<g><path style="opacity:0.494" fill="#d2bda9" d="M 27.5,72.5 C 27.5,74.8333 27.5,77.1667 27.5,79.5C 27.1779,87.7293 27.8446,95.7293 29.5,103.5C 30.3641,105.919 31.6974,107.919 33.5,109.5C 33.5,109.833 33.5,110.167 33.5,110.5C 30.7081,110.548 28.8747,109.215 28,106.5C 25.0155,95.0487 24.8489,83.7153 27.5,72.5 Z"/></g>
<g><path style="opacity:1" fill="#f0c48d" d="M 33.5,83.5 C 33.5,87.5 33.5,91.5 33.5,95.5C 32.5,95.5 31.5,95.5 30.5,95.5C 30.5,90.1667 30.5,84.8333 30.5,79.5C 30.3367,77.1432 30.5034,74.8098 31,72.5C 31.2415,76.4302 32.0749,80.0968 33.5,83.5 Z"/></g>
<g><path style="opacity:1" fill="#f1cda4" d="M 72.5,85.5 C 72.3563,88.4697 72.023,91.4697 71.5,94.5C 67.5326,94.968 64.0326,93.968 61,91.5C 60.2917,92.3805 59.4584,93.0472 58.5,93.5C 54.2953,92.0897 49.962,91.423 45.5,91.5C 45.9175,90.7784 46.5842,90.2784 47.5,90C 51.6877,89.8238 55.6877,89.3238 59.5,88.5C 63.8916,87.6517 68.2249,86.6517 72.5,85.5 Z"/></g>
<g><path style="opacity:1" fill="#d4a581" d="M 75.5,76.5 C 74.659,80.5749 75.9924,83.5749 79.5,85.5C 78.0795,88.2613 77.4129,91.2613 77.5,94.5C 76.5489,93.0813 76.2155,91.4147 76.5,89.5C 76.9234,88.7354 77.2568,87.9021 77.5,87C 75.5757,85.0717 74.5757,82.7384 74.5,80C 74.5143,78.6153 74.8476,77.4486 75.5,76.5 Z"/></g>
<g><path style="opacity:1" fill="#d4a87e" d="M 27.5,79.5 C 27.8333,79.5 28.1667,79.5 28.5,79.5C 29.1655,87.4827 29.4988,95.4827 29.5,103.5C 27.8446,95.7293 27.1779,87.7293 27.5,79.5 Z"/></g>
<g><path style="opacity:1" fill="#f4d3ae" d="M 59.5,88.5 C 55.6877,89.3238 51.6877,89.8238 47.5,90C 46.5842,90.2784 45.9175,90.7784 45.5,91.5C 43.6855,94.4074 41.0188,95.7407 37.5,95.5C 37.9175,94.7784 38.5842,94.2784 39.5,94C 38.7476,93.3292 38.4142,92.4959 38.5,91.5C 40.153,91.3404 41.4863,90.6737 42.5,89.5C 43.1667,89.5 43.8333,89.5 44.5,89.5C 45.915,88.7106 47.415,88.0439 49,87.5C 52.4408,88.3822 55.9408,88.7155 59.5,88.5 Z"/></g>
<g><path style="opacity:1" fill="#edbc92" d="M 83.5,88.5 C 84.1667,88.5 84.8333,88.5 85.5,88.5C 84.8487,95.1884 88.1821,98.5217 95.5,98.5C 101.851,98.4428 108.185,98.1095 114.5,97.5C 114.5,97.8333 114.5,98.1667 114.5,98.5C 106.136,99.8058 97.8031,99.8058 89.5,98.5C 88.8333,98.5 88.1667,98.5 87.5,98.5C 83.9071,96.2629 82.5737,92.9296 83.5,88.5 Z"/></g>
<g><path style="opacity:1" fill="#efc697" d="M 45.5,91.5 C 49.962,91.423 54.2953,92.0897 58.5,93.5C 57.5707,94.3149 56.5707,95.1482 55.5,96C 56.056,96.3826 56.3893,96.8826 56.5,97.5C 54.088,97.6695 51.9214,97.0028 50,95.5C 49.228,95.6448 48.5613,95.9781 48,96.5C 47.4046,92.9178 46.0712,92.5845 44,95.5C 43.51,96.7932 43.3433,98.1266 43.5,99.5C 39.693,100.226 37.0263,98.8926 35.5,95.5C 36.1667,95.5 36.8333,95.5 37.5,95.5C 41.0188,95.7407 43.6855,94.4074 45.5,91.5 Z"/></g>
<g><path style="opacity:1" fill="#fddfbe" d="M 107.5,89.5 C 107.063,91.0744 106.063,92.2411 104.5,93C 98.59,94.0083 92.9234,93.5083 87.5,91.5C 87.3893,90.8826 87.056,90.3826 86.5,90C 93.4921,89.5004 100.492,89.3337 107.5,89.5 Z"/></g>
<g><path style="opacity:1" fill="#f6d4ab" d="M 107.5,89.5 C 108.833,89.5 110.167,89.5 111.5,89.5C 111.5,90.5 111.5,91.5 111.5,92.5C 106.426,94.7434 101.092,95.7434 95.5,95.5C 93.369,94.6862 91.0356,94.1862 88.5,94C 87.7476,93.3292 87.4142,92.4959 87.5,91.5C 92.9234,93.5083 98.59,94.0083 104.5,93C 106.063,92.2411 107.063,91.0744 107.5,89.5 Z"/></g>
<g><path style="opacity:1" fill="#f4c795" d="M 111.5,89.5 C 111.5,89.1667 111.5,88.8333 111.5,88.5C 113.95,88.298 116.283,88.6314 118.5,89.5C 118.741,93.0188 117.407,95.6855 114.5,97.5C 108.185,98.1095 101.851,98.4428 95.5,98.5C 95.5,98.1667 95.5,97.8333 95.5,97.5C 101.781,98.0518 107.781,97.0518 113.5,94.5C 112.972,92.6639 112.306,90.9972 111.5,89.5 Z"/></g>
<g><path style="opacity:1" fill="#f0c599" d="M 76.5,89.5 C 76.2155,91.4147 76.5489,93.0813 77.5,94.5C 77.5,95.1667 77.5,95.8333 77.5,96.5C 73.1605,97.3956 68.8272,97.0622 64.5,95.5C 62.1324,97.223 59.4658,97.8897 56.5,97.5C 56.3893,96.8826 56.056,96.3826 55.5,96C 56.5707,95.1482 57.5707,94.3149 58.5,93.5C 59.4584,93.0472 60.2917,92.3805 61,91.5C 64.0326,93.968 67.5326,94.968 71.5,94.5C 72.1174,94.6107 72.6174,94.944 73,95.5C 74.4585,93.5681 75.6252,91.5681 76.5,89.5 Z"/></g>
<g><path style="opacity:1" fill="#f0c79f" d="M 85.5,88.5 C 94.1667,88.5 102.833,88.5 111.5,88.5C 111.5,88.8333 111.5,89.1667 111.5,89.5C 110.167,89.5 108.833,89.5 107.5,89.5C 100.492,89.3337 93.4921,89.5004 86.5,90C 87.056,90.3826 87.3893,90.8826 87.5,91.5C 87.4142,92.4959 87.7476,93.3292 88.5,94C 91.0356,94.1862 93.369,94.6862 95.5,95.5C 95.5,96.1667 95.5,96.8333 95.5,97.5C 95.5,97.8333 95.5,98.1667 95.5,98.5C 88.1821,98.5217 84.8487,95.1884 85.5,88.5 Z"/></g>
<g><path style="opacity:1" fill="#f3d09c" d="M 111.5,89.5 C 112.306,90.9972 112.972,92.6639 113.5,94.5C 107.781,97.0518 101.781,98.0518 95.5,97.5C 95.5,96.8333 95.5,96.1667 95.5,95.5C 101.092,95.7434 106.426,94.7434 111.5,92.5C 111.5,91.5 111.5,90.5 111.5,89.5 Z"/></g>
<g><path style="opacity:1" fill="#efc492" d="M 77.5,96.5 C 77.5,97.1667 77.5,97.8333 77.5,98.5C 76.0028,99.3058 74.3361,99.9724 72.5,100.5C 70.3516,99.2415 68.1849,99.2415 66,100.5C 64.6974,100.022 63.5307,99.355 62.5,98.5C 60.2646,98.7947 58.2646,98.4614 56.5,97.5C 59.4658,97.8897 62.1324,97.223 64.5,95.5C 68.8272,97.0622 73.1605,97.3956 77.5,96.5 Z"/></g>
<g><path style="opacity:1" fill="#ae774e" d="M 80.5,81.5 C 82.3718,83.6037 84.7052,84.937 87.5,85.5C 86.5525,86.9779 85.2191,87.9779 83.5,88.5C 82.5737,92.9296 83.9071,96.2629 87.5,98.5C 85.6672,100.832 84.3339,103.499 83.5,106.5C 83.6949,101.834 81.6949,98.5005 77.5,96.5C 77.5,95.8333 77.5,95.1667 77.5,94.5C 77.4129,91.2613 78.0795,88.2613 79.5,85.5C 80.2341,84.2921 80.5674,82.9587 80.5,81.5 Z"/></g>
<g><path style="opacity:1" fill="#eebe88" d="M 56.5,97.5 C 58.2646,98.4614 60.2646,98.7947 62.5,98.5C 60.8415,99.1814 59.1749,100.015 57.5,101C 58.2524,101.671 58.5858,102.504 58.5,103.5C 57.1667,103.5 55.8333,103.5 54.5,103.5C 51.435,97.9724 50.435,98.3058 51.5,104.5C 48.5071,105.135 45.5071,105.301 42.5,105C 42.8346,103.836 42.8346,102.503 42.5,101C 39.6353,100.817 36.9686,100.317 34.5,99.5C 34.5674,98.0413 34.2341,96.7079 33.5,95.5C 34.1667,95.5 34.8333,95.5 35.5,95.5C 37.0263,98.8926 39.693,100.226 43.5,99.5C 43.3433,98.1266 43.51,96.7932 44,95.5C 46.0712,92.5845 47.4046,92.9178 48,96.5C 48.5613,95.9781 49.228,95.6448 50,95.5C 51.9214,97.0028 54.088,97.6695 56.5,97.5 Z"/></g>
<g><path style="opacity:1" fill="#ba8963" d="M 89.5,98.5 C 97.8031,99.8058 106.136,99.8058 114.5,98.5C 115.376,98.3691 116.043,98.7025 116.5,99.5C 115.398,100.176 114.398,100.842 113.5,101.5C 105.5,101.5 97.5,101.5 89.5,101.5C 89.5,100.5 89.5,99.5 89.5,98.5 Z"/></g>
<g><path style="opacity:1" fill="#efc087" d="M 62.5,98.5 C 63.5307,99.355 64.6974,100.022 66,100.5C 68.1849,99.2415 70.3516,99.2415 72.5,100.5C 74.3361,99.9724 76.0028,99.3058 77.5,98.5C 78.8149,99.4756 80.1482,100.476 81.5,101.5C 80.5178,104.096 79.8511,106.762 79.5,109.5C 76.4816,109.665 73.4816,109.498 70.5,109C 69.944,108.617 69.6107,108.117 69.5,107.5C 71.1992,107.66 72.8659,107.494 74.5,107C 75.8333,106 75.8333,105 74.5,104C 71.1056,102.316 67.7723,102.149 64.5,103.5C 62.5,103.5 60.5,103.5 58.5,103.5C 58.5858,102.504 58.2524,101.671 57.5,101C 59.1749,100.015 60.8415,99.1814 62.5,98.5 Z"/></g>
<g><path style="opacity:1" fill="#f0bd85" d="M 28.5,79.5 C 29.1667,79.5 29.8333,79.5 30.5,79.5C 30.5,84.8333 30.5,90.1667 30.5,95.5C 31.5,95.5 32.5,95.5 33.5,95.5C 34.2341,96.7079 34.5674,98.0413 34.5,99.5C 33.7109,99.7828 33.0442,100.283 32.5,101C 34.5,102.333 36.5,103.667 38.5,105C 37.552,105.483 36.552,105.649 35.5,105.5C 34.0101,103.72 32.0101,103.054 29.5,103.5C 29.4988,95.4827 29.1655,87.4827 28.5,79.5 Z"/></g>
<g><path style="opacity:1" fill="#ca9a65" d="M 54.5,103.5 C 55.147,105.141 56.147,106.474 57.5,107.5C 56.0413,107.433 54.7079,107.766 53.5,108.5C 53.6716,107.508 53.3382,106.842 52.5,106.5C 52.6716,105.508 52.3382,104.842 51.5,104.5C 50.435,98.3058 51.435,97.9724 54.5,103.5 Z"/></g>
<g><path style="opacity:0.582" fill="#dccaba" d="M 120.5,88.5 C 121.629,90.6282 121.796,92.9615 121,95.5C 119.779,96.7741 118.946,98.2741 118.5,100C 120.141,102.928 119.807,105.428 117.5,107.5C 117.335,103.818 117.501,100.152 118,96.5C 120.023,94.2307 120.856,91.5641 120.5,88.5 Z"/></g>
<g><path style="opacity:1" fill="#deb283" d="M 29.5,103.5 C 32.0101,103.054 34.0101,103.72 35.5,105.5C 33.0582,105.119 32.3915,105.786 33.5,107.5C 36.1667,107.833 38.8333,108.167 41.5,108.5C 45.4687,108.706 49.1354,108.039 52.5,106.5C 53.3382,106.842 53.6716,107.508 53.5,108.5C 47.021,109.491 40.3543,109.824 33.5,109.5C 31.6974,107.919 30.3641,105.919 29.5,103.5 Z"/></g>
<g><path style="opacity:1" fill="#f1be80" d="M 69.5,107.5 C 67.7226,106.4 65.7226,105.566 63.5,105C 64.056,104.617 64.3893,104.117 64.5,103.5C 67.7723,102.149 71.1056,102.316 74.5,104C 75.8333,105 75.8333,106 74.5,107C 72.8659,107.494 71.1992,107.66 69.5,107.5 Z"/></g>
<g><path style="opacity:1" fill="#a76d44" d="M 87.5,98.5 C 88.1667,98.5 88.8333,98.5 89.5,98.5C 89.5,99.5 89.5,100.5 89.5,101.5C 89.2053,103.735 89.5386,105.735 90.5,107.5C 90.6495,108.552 90.4828,109.552 90,110.5C 87.7218,109.281 85.5551,107.948 83.5,106.5C 84.3339,103.499 85.6672,100.832 87.5,98.5 Z"/></g>
<g><path style="opacity:1" fill="#f1bf81" d="M 34.5,99.5 C 36.9686,100.317 39.6353,100.817 42.5,101C 42.8346,102.503 42.8346,103.836 42.5,105C 45.5071,105.301 48.5071,105.135 51.5,104.5C 52.3382,104.842 52.6716,105.508 52.5,106.5C 49.1354,108.039 45.4687,108.706 41.5,108.5C 38.8333,108.167 36.1667,107.833 33.5,107.5C 32.3915,105.786 33.0582,105.119 35.5,105.5C 36.552,105.649 37.552,105.483 38.5,105C 36.5,103.667 34.5,102.333 32.5,101C 33.0442,100.283 33.7109,99.7828 34.5,99.5 Z"/></g>
<g><path style="opacity:1" fill="#e9be95" d="M 89.5,101.5 C 97.5,101.5 105.5,101.5 113.5,101.5C 116.199,104.047 115.866,106.38 112.5,108.5C 111.5,108.5 110.5,108.5 109.5,108.5C 110.64,107.199 111.973,106.032 113.5,105C 112.692,103.294 111.359,102.461 109.5,102.5C 102.978,102.177 96.6446,102.51 90.5,103.5C 90.8333,104.833 91.1667,106.167 91.5,107.5C 91.1667,107.5 90.8333,107.5 90.5,107.5C 89.5386,105.735 89.2053,103.735 89.5,101.5 Z"/></g>
<g><path style="opacity:1" fill="#fcdebd" d="M 90.5,103.5 C 96.6446,102.51 102.978,102.177 109.5,102.5C 108.653,103.966 107.32,104.8 105.5,105C 103.667,105.167 101.833,105.333 100,105.5C 96.7587,105.003 93.5921,104.336 90.5,103.5 Z"/></g>
<g><path style="opacity:1" fill="#f1bb85" d="M 54.5,103.5 C 55.8333,103.5 57.1667,103.5 58.5,103.5C 60.5,103.5 62.5,103.5 64.5,103.5C 64.3893,104.117 64.056,104.617 63.5,105C 65.7226,105.566 67.7226,106.4 69.5,107.5C 67.8333,107.5 66.1667,107.5 64.5,107.5C 62.1667,107.5 59.8333,107.5 57.5,107.5C 56.147,106.474 55.147,105.141 54.5,103.5 Z"/></g>
<g><path style="opacity:1" fill="#e7b680" d="M 77.5,96.5 C 81.6949,98.5005 83.6949,101.834 83.5,106.5C 84.038,108.117 84.3713,109.784 84.5,111.5C 81.5,111.5 78.5,111.5 75.5,111.5C 71.5935,110.9 67.9268,109.567 64.5,107.5C 66.1667,107.5 67.8333,107.5 69.5,107.5C 69.6107,108.117 69.944,108.617 70.5,109C 73.4816,109.498 76.4816,109.665 79.5,109.5C 79.8511,106.762 80.5178,104.096 81.5,101.5C 80.1482,100.476 78.8149,99.4756 77.5,98.5C 77.5,97.8333 77.5,97.1667 77.5,96.5 Z"/></g>
<g><path style="opacity:1" fill="#f6d1a7" d="M 109.5,102.5 C 111.359,102.461 112.692,103.294 113.5,105C 111.973,106.032 110.64,107.199 109.5,108.5C 105.03,109.486 100.363,109.819 95.5,109.5C 94.4863,108.326 93.153,107.66 91.5,107.5C 91.1667,106.167 90.8333,104.833 90.5,103.5C 93.5921,104.336 96.7587,105.003 100,105.5C 101.833,105.333 103.667,105.167 105.5,105C 107.32,104.8 108.653,103.966 109.5,102.5 Z"/></g>
<g><path style="opacity:0.486" fill="#b0927a" d="M 109.5,108.5 C 110.5,108.5 111.5,108.5 112.5,108.5C 109.59,109.939 106.59,111.273 103.5,112.5C 96.9898,112.584 90.4898,112.917 84,113.5C 79.2543,113.561 74.7543,112.895 70.5,111.5C 72.1667,111.5 73.8333,111.5 75.5,111.5C 78.5,111.5 81.5,111.5 84.5,111.5C 88.4146,111.753 92.0813,111.087 95.5,109.5C 100.363,109.819 105.03,109.486 109.5,108.5 Z"/></g>
<g><path style="opacity:0.204" fill="#b18d71" d="M 57.5,107.5 C 59.8333,107.5 62.1667,107.5 64.5,107.5C 67.9268,109.567 71.5935,110.9 75.5,111.5C 73.8333,111.5 72.1667,111.5 70.5,111.5C 66.9661,111.076 63.4661,110.409 60,109.5C 51.1277,111.7 42.2943,112.033 33.5,110.5C 33.5,110.167 33.5,109.833 33.5,109.5C 40.3543,109.824 47.021,109.491 53.5,108.5C 54.7079,107.766 56.0413,107.433 57.5,107.5 Z"/></g>
<g><path style="opacity:0.814" fill="#c28d69" d="M 83.5,106.5 C 85.5551,107.948 87.7218,109.281 90,110.5C 90.4828,109.552 90.6495,108.552 90.5,107.5C 90.8333,107.5 91.1667,107.5 91.5,107.5C 93.153,107.66 94.4863,108.326 95.5,109.5C 92.0813,111.087 88.4146,111.753 84.5,111.5C 84.3713,109.784 84.038,108.117 83.5,106.5 Z"/></g>
</svg>
