<?xml version="1.0" encoding="UTF-8"?>
<!DOCTYPE svg PUBLIC "-//W3C//DTD SVG 1.1//EN" "http://www.w3.org/Graphics/SVG/1.1/DTD/svg11.dtd">
<svg xmlns="http://www.w3.org/2000/svg" version="1.1" width="156px" height="142px" style="shape-rendering:geometricPrecision; text-rendering:geometricPrecision; image-rendering:optimizeQuality; fill-rule:evenodd; clip-rule:evenodd" xmlns:xlink="http://www.w3.org/1999/xlink">
<g><path style="opacity:0.154" fill="#f8c390" d="M 89.5,25.5 C 81.5103,24.3466 73.5103,24.3466 65.5,25.5C 69.4064,24.0605 73.5731,23.3938 78,23.5C 82.1123,23.3489 85.9457,24.0156 89.5,25.5 Z"/></g>
<g><path style="opacity:0.792" fill="#e9a44c" d="M 89.5,25.5 C 90.1667,25.5 90.8333,25.5 91.5,25.5C 91.5,25.8333 91.5,26.1667 91.5,26.5C 87.476,26.4971 83.476,26.1638 79.5,25.5C 71.2486,26.3718 63.2486,28.0384 55.5,30.5C 57.0764,29.8571 58.4097,28.8571 59.5,27.5C 61.1016,25.9261 63.1016,25.2594 65.5,25.5C 73.5103,24.3466 81.5103,24.3466 89.5,25.5 Z"/></g>
<g><path style="opacity:1" fill="#f8ab29" d="M 91.5,26.5 C 96.2605,28.3791 100.927,30.5458 105.5,33C 106.305,34.1127 106.972,35.2794 107.5,36.5C 103.26,34.4223 98.927,32.5889 94.5,31C 91.854,30.5026 89.1873,30.3359 86.5,30.5C 81.3497,29.3493 76.0164,29.1826 70.5,30C 69.5842,30.2784 68.9175,30.7784 68.5,31.5C 65.1127,32.0181 61.7794,32.8514 58.5,34C 57.944,34.3826 57.6107,34.8826 57.5,35.5C 56.1667,35.8333 54.8333,36.1667 53.5,36.5C 48.4575,36.015 44.6242,38.015 42,42.5C 41.7641,44.8113 40.9307,46.8113 39.5,48.5C 39.2311,53.2637 37.8978,57.597 35.5,61.5C 34.6618,61.8417 34.3284,62.5084 34.5,63.5C 32.5202,71.3137 32.1869,79.3137 33.5,87.5C 31.6185,85.0704 30.2852,82.4038 29.5,79.5C 30.0411,69.8032 32.0411,60.4699 35.5,51.5C 37.2845,49.0517 38.6178,46.385 39.5,43.5C 42.1667,40.5 44.8333,37.5 47.5,34.5C 49.8525,33.6597 51.8525,32.3264 53.5,30.5C 54.1667,30.5 54.8333,30.5 55.5,30.5C 63.2486,28.0384 71.2486,26.3718 79.5,25.5C 83.476,26.1638 87.476,26.4971 91.5,26.5 Z"/></g>
<g><path style="opacity:0.427" fill="#f4bd85" d="M 59.5,27.5 C 58.4097,28.8571 57.0764,29.8571 55.5,30.5C 54.8333,30.5 54.1667,30.5 53.5,30.5C 55.0326,28.7549 57.0326,27.7549 59.5,27.5 Z"/></g>
<g><path style="opacity:1" fill="#faca62" d="M 86.5,30.5 C 81.4053,30.2213 76.4053,30.5546 71.5,31.5C 70.5,31.5 69.5,31.5 68.5,31.5C 68.9175,30.7784 69.5842,30.2784 70.5,30C 76.0164,29.1826 81.3497,29.3493 86.5,30.5 Z"/></g>
<g><path style="opacity:0.518" fill="#f1bb83" d="M 53.5,30.5 C 51.8525,32.3264 49.8525,33.6597 47.5,34.5C 48.8021,32.1782 50.8021,30.8449 53.5,30.5 Z"/></g>
<g><path style="opacity:1" fill="#fdd374" d="M 95.5,33.5 C 99.064,34.3199 101.731,36.3199 103.5,39.5C 100.467,37.984 97.8003,35.984 95.5,33.5 Z"/></g>
<g><path style="opacity:1" fill="#fabc3a" d="M 86.5,30.5 C 89.1873,30.3359 91.854,30.5026 94.5,31C 98.927,32.5889 103.26,34.4223 107.5,36.5C 109.594,39.097 110.927,42.097 111.5,45.5C 109.97,44.7888 108.637,43.7888 107.5,42.5C 106.738,40.7376 105.404,39.7376 103.5,39.5C 101.731,36.3199 99.064,34.3199 95.5,33.5C 92.8333,32.8333 90.1667,32.1667 87.5,31.5C 86.8333,31.5 86.5,31.1667 86.5,30.5 Z"/></g>
<g><path style="opacity:1" fill="#fdeab8" d="M 86.5,30.5 C 86.5,31.1667 86.8333,31.5 87.5,31.5C 89.5901,33.3902 91.9235,35.0569 94.5,36.5C 89.8596,38.4358 85.0263,39.4358 80,39.5C 73.8246,38.5541 67.6579,37.5541 61.5,36.5C 64.529,34.0567 67.8624,32.3901 71.5,31.5C 76.4053,30.5546 81.4053,30.2213 86.5,30.5 Z"/></g>
<g><path style="opacity:0.776" fill="#ebaf72" d="M 91.5,26.5 C 91.5,26.1667 91.5,25.8333 91.5,25.5C 100.713,27.7295 108.379,32.3961 114.5,39.5C 112.372,38.0427 110.038,37.0427 107.5,36.5C 106.972,35.2794 106.305,34.1127 105.5,33C 100.927,30.5458 96.2605,28.3791 91.5,26.5 Z"/></g>
<g><path style="opacity:0.537" fill="#f4b987" d="M 47.5,34.5 C 44.8333,37.5 42.1667,40.5 39.5,43.5C 39.1667,43.5 38.8333,43.5 38.5,43.5C 40.5,39.5 43.5,36.5 47.5,34.5 Z"/></g>
<g><path style="opacity:1" fill="#fde4a1" d="M 68.5,31.5 C 69.5,31.5 70.5,31.5 71.5,31.5C 67.8624,32.3901 64.529,34.0567 61.5,36.5C 67.6579,37.5541 73.8246,38.5541 80,39.5C 85.0263,39.4358 89.8596,38.4358 94.5,36.5C 91.9235,35.0569 89.5901,33.3902 87.5,31.5C 90.1667,32.1667 92.8333,32.8333 95.5,33.5C 97.8003,35.984 100.467,37.984 103.5,39.5C 103.833,40.1667 104.167,40.8333 104.5,41.5C 104.441,43.7224 103.275,44.7224 101,44.5C 99.1878,44.5066 97.6878,43.84 96.5,42.5C 92.0072,44.8346 87.1738,45.8346 82,45.5C 77.1996,45.538 72.5329,44.8713 68,43.5C 66.1063,43.5798 64.2729,43.9131 62.5,44.5C 59.8066,42.7298 56.8066,42.0632 53.5,42.5C 53.4326,41.0413 53.7659,39.7079 54.5,38.5C 55.6935,37.7281 56.6935,36.7281 57.5,35.5C 57.6107,34.8826 57.944,34.3826 58.5,34C 61.7794,32.8514 65.1127,32.0181 68.5,31.5 Z"/></g>
<g><path style="opacity:1" fill="#f7b424" d="M 53.5,36.5 C 49.449,39.5493 46.1157,43.216 43.5,47.5C 42.2921,48.2341 40.9587,48.5674 39.5,48.5C 40.9307,46.8113 41.7641,44.8113 42,42.5C 44.6242,38.015 48.4575,36.015 53.5,36.5 Z"/></g>
<g><path style="opacity:1" fill="#f9a92b" d="M 107.5,36.5 C 110.038,37.0427 112.372,38.0427 114.5,39.5C 114.562,43.5684 116.562,46.235 120.5,47.5C 120.5,49.5 120.5,51.5 120.5,53.5C 117.278,52.3974 115.611,50.0641 115.5,46.5C 115.043,45.7025 114.376,45.3691 113.5,45.5C 112.833,45.5 112.167,45.5 111.5,45.5C 110.927,42.097 109.594,39.097 107.5,36.5 Z"/></g>
<g><path style="opacity:1" fill="#e3a154" d="M 114.5,39.5 C 116.984,41.8003 118.984,44.4669 120.5,47.5C 116.562,46.235 114.562,43.5684 114.5,39.5 Z"/></g>
<g><path style="opacity:1" fill="#fde094" d="M 54.5,38.5 C 53.7659,39.7079 53.4326,41.0413 53.5,42.5C 56.8066,42.0632 59.8066,42.7298 62.5,44.5C 64.2729,43.9131 66.1063,43.5798 68,43.5C 72.5329,44.8713 77.1996,45.538 82,45.5C 87.1738,45.8346 92.0072,44.8346 96.5,42.5C 97.6878,43.84 99.1878,44.5066 101,44.5C 103.275,44.7224 104.441,43.7224 104.5,41.5C 106.28,42.9899 106.946,44.9899 106.5,47.5C 104.226,47.2849 102.059,46.6182 100,45.5C 98.6349,45.8443 97.4682,46.5109 96.5,47.5C 95.6721,46.5853 94.6721,45.9186 93.5,45.5C 81.77,46.9694 70.1033,46.6361 58.5,44.5C 55.7302,47.0304 52.3969,48.0304 48.5,47.5C 49.3822,44.615 50.7155,41.9483 52.5,39.5C 52.8417,38.6618 53.5084,38.3284 54.5,38.5 Z"/></g>
<g><path style="opacity:1" fill="#eca75d" d="M 38.5,43.5 C 38.8333,43.5 39.1667,43.5 39.5,43.5C 38.6178,46.385 37.2845,49.0517 35.5,51.5C 34.1667,52.5 32.8333,53.5 31.5,54.5C 32.6257,50.0457 34.9591,46.379 38.5,43.5 Z"/></g>
<g><path style="opacity:1" fill="#fedc84" d="M 52.5,39.5 C 50.7155,41.9483 49.3822,44.615 48.5,47.5C 52.3969,48.0304 55.7302,47.0304 58.5,44.5C 70.1033,46.6361 81.77,46.9694 93.5,45.5C 94.6721,45.9186 95.6721,46.5853 96.5,47.5C 97.4682,46.5109 98.6349,45.8443 100,45.5C 102.059,46.6182 104.226,47.2849 106.5,47.5C 106.946,44.9899 106.28,42.9899 104.5,41.5C 104.167,40.8333 103.833,40.1667 103.5,39.5C 105.404,39.7376 106.738,40.7376 107.5,42.5C 108.15,44.4352 108.483,46.4352 108.5,48.5C 103.846,48.9159 99.1795,49.2493 94.5,49.5C 88.337,48.0938 82.1703,47.4271 76,47.5C 72.8203,47.9212 69.8203,48.9212 67,50.5C 65.1739,49.3267 63.3405,49.3267 61.5,50.5C 58.0663,51.2703 54.3996,51.2703 50.5,50.5C 50.6882,52.1033 50.1882,53.4366 49,54.5C 47.8869,53.2889 46.7202,53.2889 45.5,54.5C 45.1667,53.6667 44.8333,52.8333 44.5,52C 45.7991,46.8997 48.4658,42.733 52.5,39.5 Z"/></g>
<g><path style="opacity:1" fill="#feda7b" d="M 107.5,42.5 C 108.637,43.7888 109.97,44.7888 111.5,45.5C 111.5,46.5 111.5,47.5 111.5,48.5C 111.557,49.609 111.89,50.609 112.5,51.5C 112.657,52.8734 112.49,54.2068 112,55.5C 111.326,54.4216 110.326,53.7549 109,53.5C 102.909,53.0404 96.9093,52.0404 91,50.5C 88.3807,50.7267 85.8807,51.3934 83.5,52.5C 79.3367,52.3367 75.17,52.3367 71,52.5C 67.6235,52.193 64.4569,51.5263 61.5,50.5C 63.3405,49.3267 65.1739,49.3267 67,50.5C 69.8203,48.9212 72.8203,47.9212 76,47.5C 82.1703,47.4271 88.337,48.0938 94.5,49.5C 99.1795,49.2493 103.846,48.9159 108.5,48.5C 108.483,46.4352 108.15,44.4352 107.5,42.5 Z"/></g>
<g><path style="opacity:1" fill="#fbd36c" d="M 57.5,35.5 C 56.6935,36.7281 55.6935,37.7281 54.5,38.5C 53.5084,38.3284 52.8417,38.6618 52.5,39.5C 48.4658,42.733 45.7991,46.8997 44.5,52C 44.8333,52.8333 45.1667,53.6667 45.5,54.5C 46.7202,53.2889 47.8869,53.2889 49,54.5C 50.1882,53.4366 50.6882,52.1033 50.5,50.5C 54.3996,51.2703 58.0663,51.2703 61.5,50.5C 64.4569,51.5263 67.6235,52.193 71,52.5C 75.17,52.3367 79.3367,52.3367 83.5,52.5C 85.8807,51.3934 88.3807,50.7267 91,50.5C 96.9093,52.0404 102.909,53.0404 109,53.5C 110.326,53.7549 111.326,54.4216 112,55.5C 112.49,54.2068 112.657,52.8734 112.5,51.5C 113.874,53.5167 113.707,55.5167 112,57.5C 108.515,56.567 105.015,55.567 101.5,54.5C 99.9623,54.4534 98.9623,55.1201 98.5,56.5C 96.1432,56.3367 93.8098,56.5034 91.5,57C 90.944,57.3826 90.6107,57.8826 90.5,58.5C 89.5,59.1667 88.5,59.8333 87.5,60.5C 87.67,59.1779 87.3366,58.0113 86.5,57C 84.2779,56.3054 82.1113,55.4721 80,54.5C 76.4715,55.6017 72.9715,55.7683 69.5,55C 68.5939,56.6995 68.2606,58.5328 68.5,60.5C 67.5,59.8333 66.5,59.1667 65.5,58.5C 65.0377,57.1201 64.0377,56.4534 62.5,56.5C 60.4227,57.3228 58.756,58.6561 57.5,60.5C 57.7989,58.396 57.4656,56.396 56.5,54.5C 52.2989,54.8715 48.2989,55.8715 44.5,57.5C 43.52,54.9135 43.1866,52.2469 43.5,49.5C 43.5,48.8333 43.5,48.1667 43.5,47.5C 46.1157,43.216 49.449,39.5493 53.5,36.5C 54.8333,36.1667 56.1667,35.8333 57.5,35.5 Z"/></g>
<g><path style="opacity:1" fill="#e6a24d" d="M 120.5,47.5 C 124.57,52.3582 126.903,58.0249 127.5,64.5C 125.885,60.4263 123.551,56.7597 120.5,53.5C 120.5,51.5 120.5,49.5 120.5,47.5 Z"/></g>
<g><path style="opacity:1" fill="#fcce5a" d="M 87.5,60.5 C 87.5,62.8333 87.5,65.1667 87.5,67.5C 86.7948,64.7719 86.1281,61.9386 85.5,59C 83.2913,57.3093 81.4579,57.476 80,59.5C 79.6667,58.8333 79.3333,58.1667 79,57.5C 76.2258,58.523 73.3925,58.523 70.5,57.5C 70.5,59.5 70.5,61.5 70.5,63.5C 69.8333,64.8333 69.1667,66.1667 68.5,67.5C 68.5,65.1667 68.5,62.8333 68.5,60.5C 68.2606,58.5328 68.5939,56.6995 69.5,55C 72.9715,55.7683 76.4715,55.6017 80,54.5C 82.1113,55.4721 84.2779,56.3054 86.5,57C 87.3366,58.0113 87.67,59.1779 87.5,60.5 Z"/></g>
<g><path style="opacity:1" fill="#cea24d" d="M 98.5,56.5 C 99.647,60.6463 99.8136,64.9796 99,69.5C 98.6174,70.056 98.1174,70.3893 97.5,70.5C 97.5,69.8333 97.5,69.1667 97.5,68.5C 98.7828,65.6346 98.7828,62.6346 97.5,59.5C 95.4334,57.2547 93.1,56.9213 90.5,58.5C 90.6107,57.8826 90.944,57.3826 91.5,57C 93.8098,56.5034 96.1432,56.3367 98.5,56.5 Z"/></g>
<g><path style="opacity:1" fill="#eb9b30" d="M 35.5,51.5 C 32.0411,60.4699 30.0411,69.8032 29.5,79.5C 28.8389,77.866 28.5056,76.0326 28.5,74C 29.6611,67.8667 30.6611,61.7 31.5,55.5C 31.5,55.1667 31.5,54.8333 31.5,54.5C 32.8333,53.5 34.1667,52.5 35.5,51.5 Z"/></g>
<g><path style="opacity:1" fill="#fcc93a" d="M 43.5,47.5 C 43.5,48.1667 43.5,48.8333 43.5,49.5C 42.353,53.6463 42.1864,57.9796 43,62.5C 43.414,62.9574 43.914,63.2907 44.5,63.5C 45.1667,61.8333 45.8333,60.1667 46.5,58.5C 48.3571,61.5056 50.8571,62.1723 54,60.5C 55.092,63.0444 55.7586,65.7111 56,68.5C 56.3826,69.056 56.8826,69.3893 57.5,69.5C 57.5,70.1667 57.5,70.8333 57.5,71.5C 56.609,70.8902 55.609,70.5569 54.5,70.5C 54.7124,65.557 53.7124,64.8903 51.5,68.5C 50.452,67.6171 49.2853,66.9504 48,66.5C 45.5661,67.3223 43.0661,67.6556 40.5,67.5C 38.9982,65.278 37.3316,63.278 35.5,61.5C 37.8978,57.597 39.2311,53.2637 39.5,48.5C 40.9587,48.5674 42.2921,48.2341 43.5,47.5 Z"/></g>
<g><path style="opacity:1" fill="#fbcb51" d="M 111.5,48.5 C 112.458,48.9528 113.292,49.6195 114,50.5C 114.667,54.8333 114.667,59.1667 114,63.5C 112.887,64.7111 111.72,64.7111 110.5,63.5C 109.833,64.5 109.167,65.5 108.5,66.5C 107.3,65.4688 105.966,64.6355 104.5,64C 108.279,62.8902 108.446,61.3902 105,59.5C 102.561,60.8616 102.061,62.695 103.5,65C 102.552,65.4828 101.552,65.6495 100.5,65.5C 100.5,66.5 100.5,67.5 100.5,68.5C 100.5,69.8333 100.5,71.1667 100.5,72.5C 99.209,72.2627 98.209,72.596 97.5,73.5C 95.742,73.8769 94.0754,74.5435 92.5,75.5C 91.1401,74.8201 89.8068,74.1534 88.5,73.5C 88.5,72.1667 88.5,70.8333 88.5,69.5C 91.031,73.0672 94.031,73.4006 97.5,70.5C 98.1174,70.3893 98.6174,70.056 99,69.5C 99.8136,64.9796 99.647,60.6463 98.5,56.5C 98.9623,55.1201 99.9623,54.4534 101.5,54.5C 105.015,55.567 108.515,56.567 112,57.5C 113.707,55.5167 113.874,53.5167 112.5,51.5C 111.89,50.609 111.557,49.609 111.5,48.5 Z"/></g>
<g><path style="opacity:1" fill="#fcca41" d="M 111.5,45.5 C 112.167,45.5 112.833,45.5 113.5,45.5C 114.837,48.8636 116.17,52.197 117.5,55.5C 116.679,58.6414 116.179,61.9748 116,65.5C 115.135,68.2026 113.301,69.5359 110.5,69.5C 108.328,68.454 106.161,67.454 104,66.5C 102.566,66.8618 101.399,67.5285 100.5,68.5C 100.5,67.5 100.5,66.5 100.5,65.5C 101.552,65.6495 102.552,65.4828 103.5,65C 102.061,62.695 102.561,60.8616 105,59.5C 108.446,61.3902 108.279,62.8902 104.5,64C 105.966,64.6355 107.3,65.4688 108.5,66.5C 109.167,65.5 109.833,64.5 110.5,63.5C 111.72,64.7111 112.887,64.7111 114,63.5C 114.667,59.1667 114.667,54.8333 114,50.5C 113.292,49.6195 112.458,48.9528 111.5,48.5C 111.5,47.5 111.5,46.5 111.5,45.5 Z"/></g>
<g><path style="opacity:1" fill="#fbca55" d="M 43.5,49.5 C 43.1866,52.2469 43.52,54.9135 44.5,57.5C 48.2989,55.8715 52.2989,54.8715 56.5,54.5C 57.4656,56.396 57.7989,58.396 57.5,60.5C 57.5,63.5 57.5,66.5 57.5,69.5C 56.8826,69.3893 56.3826,69.056 56,68.5C 55.7586,65.7111 55.092,63.0444 54,60.5C 50.8571,62.1723 48.3571,61.5056 46.5,58.5C 45.8333,60.1667 45.1667,61.8333 44.5,63.5C 43.914,63.2907 43.414,62.9574 43,62.5C 42.1864,57.9796 42.353,53.6463 43.5,49.5 Z"/></g>
<g><path style="opacity:1" fill="#7c491e" d="M 97.5,68.5 C 95.9557,68.7031 94.6223,69.3698 93.5,70.5C 90.2587,68.3505 88.9253,65.3505 89.5,61.5C 90.1098,60.609 90.4431,59.609 90.5,58.5C 93.1,56.9213 95.4334,57.2547 97.5,59.5C 98.7828,62.6346 98.7828,65.6346 97.5,68.5 Z"/></g>
<g><path style="opacity:1" fill="#aa7929" d="M 65.5,58.5 C 66.5,59.1667 67.5,59.8333 68.5,60.5C 68.5,62.8333 68.5,65.1667 68.5,67.5C 68.573,69.0269 67.9063,70.0269 66.5,70.5C 68.0378,66.2856 67.7044,62.2856 65.5,58.5 Z"/></g>
<g><path style="opacity:1" fill="#bd9136" d="M 90.5,58.5 C 90.4431,59.609 90.1098,60.609 89.5,61.5C 88.5269,63.9479 88.1936,66.6146 88.5,69.5C 87.6618,69.1583 87.3284,68.4916 87.5,67.5C 87.5,65.1667 87.5,62.8333 87.5,60.5C 88.5,59.8333 89.5,59.1667 90.5,58.5 Z"/></g>
<g><path style="opacity:1" fill="#fdc52c" d="M 34.5,63.5 C 34.2623,68.858 34.0957,74.1914 34,79.5C 35.84,83.6952 37.6734,87.8619 39.5,92C 39.8333,92.1667 40.1667,92.3333 40.5,92.5C 41.7127,83.8324 41.7127,75.4991 40.5,67.5C 43.0661,67.6556 45.5661,67.3223 48,66.5C 49.2853,66.9504 50.452,67.6171 51.5,68.5C 53.7124,64.8903 54.7124,65.557 54.5,70.5C 54.2623,72.6449 53.2623,74.3115 51.5,75.5C 50.5258,77.7427 50.1924,80.076 50.5,82.5C 48.857,82.5198 47.5237,81.8532 46.5,80.5C 45.3295,83.8177 45.3295,87.151 46.5,90.5C 45.5354,92.3289 44.5354,94.1623 43.5,96C 44.7884,98.6968 45.7884,101.53 46.5,104.5C 45.448,104.649 44.448,104.483 43.5,104C 39.2702,100.443 36.7702,95.9427 36,90.5C 35.1482,89.4293 34.3149,88.4293 33.5,87.5C 32.1869,79.3137 32.5202,71.3137 34.5,63.5 Z"/></g>
<g><path style="opacity:1" fill="#7a490b" d="M 65.5,58.5 C 67.7044,62.2856 68.0378,66.2856 66.5,70.5C 63.1323,73.3759 60.1323,73.0426 57.5,69.5C 57.5,66.5 57.5,63.5 57.5,60.5C 58.756,58.6561 60.4227,57.3228 62.5,56.5C 64.0377,56.4534 65.0377,57.1201 65.5,58.5 Z"/></g>
<g><path style="opacity:1" fill="#85522a" d="M 60.5,60.5 C 66.6426,61.0262 67.9759,63.8595 64.5,69C 62.8876,69.7203 61.3876,69.5536 60,68.5C 59.3985,65.7795 59.5651,63.1128 60.5,60.5 Z"/></g>
<g><path style="opacity:1" fill="#fdc836" d="M 87.5,67.5 C 87.3284,68.4916 87.6618,69.1583 88.5,69.5C 88.5,70.8333 88.5,72.1667 88.5,73.5C 87.6091,72.7387 86.9424,71.7387 86.5,70.5C 82.8211,69.4008 79.1545,68.4008 75.5,67.5C 75.5,68.8333 75.5,70.1667 75.5,71.5C 79.0483,72.7022 82.715,73.3689 86.5,73.5C 86.7989,75.604 86.4656,77.604 85.5,79.5C 83.3894,78.0512 81.0561,77.0512 78.5,76.5C 77.3776,78.0436 77.711,79.377 79.5,80.5C 74.2079,81.4948 68.8746,81.8282 63.5,81.5C 66.1249,80.1871 68.6249,78.5204 71,76.5C 71.4828,77.448 71.6495,78.448 71.5,79.5C 72.8333,79.5 74.1667,79.5 75.5,79.5C 74.1782,76.5124 72.8448,73.5124 71.5,70.5C 72.9371,68.4229 73.6038,66.0895 73.5,63.5C 72.5,63.5 71.5,63.5 70.5,63.5C 70.5,61.5 70.5,59.5 70.5,57.5C 73.3925,58.523 76.2258,58.523 79,57.5C 79.3333,58.1667 79.6667,58.8333 80,59.5C 81.4579,57.476 83.2913,57.3093 85.5,59C 86.1281,61.9386 86.7948,64.7719 87.5,67.5 Z"/></g>
<g><path style="opacity:1" fill="#fdc82b" d="M 35.5,61.5 C 37.3316,63.278 38.9982,65.278 40.5,67.5C 41.7127,75.4991 41.7127,83.8324 40.5,92.5C 40.1667,92.3333 39.8333,92.1667 39.5,92C 37.6734,87.8619 35.84,83.6952 34,79.5C 34.0957,74.1914 34.2623,68.858 34.5,63.5C 34.3284,62.5084 34.6618,61.8417 35.5,61.5 Z"/></g>
<g><path style="opacity:1" fill="#7c4f09" d="M 89.5,61.5 C 88.9253,65.3505 90.2587,68.3505 93.5,70.5C 94.6223,69.3698 95.9557,68.7031 97.5,68.5C 97.5,69.1667 97.5,69.8333 97.5,70.5C 94.031,73.4006 91.031,73.0672 88.5,69.5C 88.1936,66.6146 88.5269,63.9479 89.5,61.5 Z"/></g>
<g><path style="opacity:1" fill="#fdc626" d="M 117.5,88.5 C 117.453,85.4318 116.953,82.4318 116,79.5C 115.501,85.4908 115.334,91.4908 115.5,97.5C 113.35,97.9052 111.35,98.4052 109.5,99C 110.841,95.7383 110.508,95.2383 108.5,97.5C 107.534,95.604 107.201,93.604 107.5,91.5C 109.433,89.2458 110.766,86.5792 111.5,83.5C 111.253,82.2867 110.586,81.62 109.5,81.5C 110.278,80.8444 110.944,80.0111 111.5,79C 111.167,78.5 110.833,78 110.5,77.5C 109.191,79.8912 108.191,79.8912 107.5,77.5C 107.899,75.8034 108.399,74.1368 109,72.5C 110.333,71.1667 111.667,71.1667 113,72.5C 114.723,69.2269 117.223,68.2269 120.5,69.5C 121.562,72.1029 121.728,74.7695 121,77.5C 120.077,81.3125 118.91,84.9792 117.5,88.5 Z"/></g>
<g><path style="opacity:0.188" fill="#f0b679" d="M 31.5,55.5 C 30.6611,61.7 29.6611,67.8667 28.5,74C 28.5056,76.0326 28.8389,77.866 29.5,79.5C 29.5,82.8333 29.5,86.1667 29.5,89.5C 28.6981,88.0484 28.1981,86.3817 28,84.5C 27.3333,77.8333 27.3333,71.1667 28,64.5C 28.6608,61.198 29.8275,58.198 31.5,55.5 Z"/></g>
<g><path style="opacity:1" fill="#d1a03e" d="M 57.5,69.5 C 60.1323,73.0426 63.1323,73.3759 66.5,70.5C 66.3152,72.8896 64.9818,73.8896 62.5,73.5C 60.4861,73.5635 58.8194,72.8968 57.5,71.5C 57.5,70.8333 57.5,70.1667 57.5,69.5 Z"/></g>
<g><path style="opacity:1" fill="#fdc52d" d="M 117.5,55.5 C 118.815,60.2685 120.648,64.9352 123,69.5C 123.667,74.5 123.667,79.5 123,84.5C 120.861,88.3163 119.027,92.3163 117.5,96.5C 116.503,93.995 116.503,91.3283 117.5,88.5C 118.91,84.9792 120.077,81.3125 121,77.5C 121.728,74.7695 121.562,72.1029 120.5,69.5C 117.223,68.2269 114.723,69.2269 113,72.5C 111.667,71.1667 110.333,71.1667 109,72.5C 108.399,74.1368 107.899,75.8034 107.5,77.5C 108.191,79.8912 109.191,79.8912 110.5,77.5C 110.833,78 111.167,78.5 111.5,79C 110.944,80.0111 110.278,80.8444 109.5,81.5C 108.984,83.1998 107.984,84.5331 106.5,85.5C 103.05,83.7758 99.3834,83.1091 95.5,83.5C 98.3745,81.9253 101.541,80.592 105,79.5C 105.333,77.0658 104.166,76.0658 101.5,76.5C 101.5,77.5 101.5,78.5 101.5,79.5C 97.7624,80.0791 94.0957,80.0791 90.5,79.5C 92.1133,77.9121 94.1133,76.9121 96.5,76.5C 98.1667,78.1667 99.1667,77.8333 99.5,75.5C 99.2528,74.2867 98.5862,73.62 97.5,73.5C 98.209,72.596 99.209,72.2627 100.5,72.5C 100.5,71.1667 100.5,69.8333 100.5,68.5C 101.399,67.5285 102.566,66.8618 104,66.5C 106.161,67.454 108.328,68.454 110.5,69.5C 113.301,69.5359 115.135,68.2026 116,65.5C 116.179,61.9748 116.679,58.6414 117.5,55.5 Z"/></g>
<g><path style="opacity:1" fill="#fbc830" d="M 70.5,63.5 C 71.5,63.5 72.5,63.5 73.5,63.5C 73.6038,66.0895 72.9371,68.4229 71.5,70.5C 72.8448,73.5124 74.1782,76.5124 75.5,79.5C 74.1667,79.5 72.8333,79.5 71.5,79.5C 71.6495,78.448 71.4828,77.448 71,76.5C 68.6249,78.5204 66.1249,80.1871 63.5,81.5C 63.5,82.1667 63.5,82.8333 63.5,83.5C 61.1432,83.3367 58.8098,83.5034 56.5,84C 57.2524,84.6708 57.5858,85.5041 57.5,86.5C 55.8333,86.5 54.1667,86.5 52.5,86.5C 52.5,88.1667 52.5,89.8333 52.5,91.5C 50.8235,90.8166 50.1568,89.4832 50.5,87.5C 50.8212,85.9519 51.8212,85.2852 53.5,85.5C 53.3379,83.4727 53.5045,81.4727 54,79.5C 56.5343,77.4315 57.7009,74.7648 57.5,71.5C 58.8194,72.8968 60.4861,73.5635 62.5,73.5C 64.9818,73.8896 66.3152,72.8896 66.5,70.5C 67.9063,70.0269 68.573,69.0269 68.5,67.5C 69.1667,66.1667 69.8333,64.8333 70.5,63.5 Z"/></g>
<g><path style="opacity:1" fill="#fdc824" d="M 88.5,73.5 C 89.8068,74.1534 91.1401,74.8201 92.5,75.5C 94.0754,74.5435 95.742,73.8769 97.5,73.5C 98.5862,73.62 99.2528,74.2867 99.5,75.5C 99.1667,77.8333 98.1667,78.1667 96.5,76.5C 94.1133,76.9121 92.1133,77.9121 90.5,79.5C 94.0957,80.0791 97.7624,80.0791 101.5,79.5C 101.5,78.5 101.5,77.5 101.5,76.5C 104.166,76.0658 105.333,77.0658 105,79.5C 101.541,80.592 98.3745,81.9253 95.5,83.5C 84.0666,83.0321 73.3999,83.0321 63.5,83.5C 63.5,82.8333 63.5,82.1667 63.5,81.5C 68.8746,81.8282 74.2079,81.4948 79.5,80.5C 77.711,79.377 77.3776,78.0436 78.5,76.5C 81.0561,77.0512 83.3894,78.0512 85.5,79.5C 86.4656,77.604 86.7989,75.604 86.5,73.5C 82.715,73.3689 79.0483,72.7022 75.5,71.5C 75.5,70.1667 75.5,68.8333 75.5,67.5C 79.1545,68.4008 82.8211,69.4008 86.5,70.5C 86.9424,71.7387 87.6091,72.7387 88.5,73.5 Z"/></g>
<g><path style="opacity:1" fill="#faca2b" d="M 109.5,81.5 C 110.586,81.62 111.253,82.2867 111.5,83.5C 110.766,86.5792 109.433,89.2458 107.5,91.5C 106.978,89.7809 105.978,88.4475 104.5,87.5C 104.167,87.5 103.833,87.5 103.5,87.5C 88.3424,86.5038 73.0091,86.1705 57.5,86.5C 57.5858,85.5041 57.2524,84.6708 56.5,84C 58.8098,83.5034 61.1432,83.3367 63.5,83.5C 73.3999,83.0321 84.0666,83.0321 95.5,83.5C 99.3834,83.1091 103.05,83.7758 106.5,85.5C 107.984,84.5331 108.984,83.1998 109.5,81.5 Z"/></g>
<g><path style="opacity:1" fill="#d0ab39" d="M 57.5,86.5 C 73.0091,86.1705 88.3424,86.5038 103.5,87.5C 103.167,87.5 102.833,87.5 102.5,87.5C 86.1667,87.5 69.8333,87.5 53.5,87.5C 53.5,88.8333 53.5,90.1667 53.5,91.5C 53.1667,91.5 52.8333,91.5 52.5,91.5C 52.5,89.8333 52.5,88.1667 52.5,86.5C 54.1667,86.5 55.8333,86.5 57.5,86.5 Z"/></g>
<g><path style="opacity:1" fill="#4a260a" d="M 102.5,88.5 C 103.833,89.5 103.833,90.5 102.5,91.5C 86.5,91.5 70.5,91.5 54.5,91.5C 54.5,90.5 54.5,89.5 54.5,88.5C 70.5,88.5 86.5,88.5 102.5,88.5 Z"/></g>
<g><path style="opacity:0.475" fill="#e8b880" d="M 29.5,89.5 C 31.256,90.5521 31.9227,92.2188 31.5,94.5C 30.4625,93.0697 29.7959,91.403 29.5,89.5 Z"/></g>
<g><path style="opacity:1" fill="#7b560f" d="M 102.5,87.5 C 102.5,87.8333 102.5,88.1667 102.5,88.5C 86.5,88.5 70.5,88.5 54.5,88.5C 54.5,89.5 54.5,90.5 54.5,91.5C 70.5,91.5 86.5,91.5 102.5,91.5C 86.6754,92.4964 70.6754,92.8297 54.5,92.5C 53.8333,92.5 53.5,92.1667 53.5,91.5C 53.5,90.1667 53.5,88.8333 53.5,87.5C 69.8333,87.5 86.1667,87.5 102.5,87.5 Z"/></g>
<g><path style="opacity:1" fill="#b89329" d="M 102.5,88.5 C 102.5,88.1667 102.5,87.8333 102.5,87.5C 102.833,87.5 103.167,87.5 103.5,87.5C 103.833,87.5 104.167,87.5 104.5,87.5C 104.675,89.6208 104.341,91.6208 103.5,93.5C 86.9915,93.8298 70.6581,93.4964 54.5,92.5C 70.6754,92.8297 86.6754,92.4964 102.5,91.5C 103.833,90.5 103.833,89.5 102.5,88.5 Z"/></g>
<g><path style="opacity:0.969" fill="#e8a764" d="M 127.5,64.5 C 129.341,74.9175 128.508,85.2508 125,95.5C 123.811,97.2331 122.644,98.8998 121.5,100.5C 125.931,88.9992 127.931,76.9992 127.5,64.5 Z"/></g>
<g><path style="opacity:0.973" fill="#f09f30" d="M 29.5,79.5 C 30.2852,82.4038 31.6185,85.0704 33.5,87.5C 33.4158,91.3309 34.0825,94.9975 35.5,98.5C 34.5275,96.8608 33.1942,95.5274 31.5,94.5C 31.9227,92.2188 31.256,90.5521 29.5,89.5C 29.5,86.1667 29.5,82.8333 29.5,79.5 Z"/></g>
<g><path style="opacity:1" fill="#e3be2e" d="M 52.5,91.5 C 52.8333,91.5 53.1667,91.5 53.5,91.5C 53.5,92.1667 53.8333,92.5 54.5,92.5C 70.6581,93.4964 86.9915,93.8298 103.5,93.5C 103.5,93.8333 103.5,94.1667 103.5,94.5C 86.83,94.6666 70.1633,94.4999 53.5,94C 52.7476,93.3292 52.4142,92.4959 52.5,91.5 Z"/></g>
<g><path style="opacity:1" fill="#fcc52c" d="M 117.5,88.5 C 116.503,91.3283 116.503,93.995 117.5,96.5C 117.923,97.2646 118.257,98.0979 118.5,99C 117.419,100.371 116.585,101.871 116,103.5C 111.429,105.772 107.262,108.439 103.5,111.5C 105.41,110.316 105.743,108.816 104.5,107C 105.5,105.333 106.833,104 108.5,103C 107,100.833 105.833,101 105,103.5C 104.25,102.874 103.416,102.374 102.5,102C 102.833,101.667 103.167,101.333 103.5,101C 102.234,100.691 101.067,100.191 100,99.5C 100.837,97.7623 102.004,96.0957 103.5,94.5C 103.5,94.1667 103.5,93.8333 103.5,93.5C 104.341,91.6208 104.675,89.6208 104.5,87.5C 105.978,88.4475 106.978,89.7809 107.5,91.5C 107.201,93.604 107.534,95.604 108.5,97.5C 110.508,95.2383 110.841,95.7383 109.5,99C 111.35,98.4052 113.35,97.9052 115.5,97.5C 115.334,91.4908 115.501,85.4908 116,79.5C 116.953,82.4318 117.453,85.4318 117.5,88.5 Z"/></g>
<g><path style="opacity:1" fill="#fdc628" d="M 54.5,70.5 C 55.609,70.5569 56.609,70.8902 57.5,71.5C 57.7009,74.7648 56.5343,77.4315 54,79.5C 53.5045,81.4727 53.3379,83.4727 53.5,85.5C 51.8212,85.2852 50.8212,85.9519 50.5,87.5C 49.5,87.5 48.5,87.5 47.5,87.5C 48.0444,89.5795 48.8777,91.5795 50,93.5C 50.7504,94.1258 51.5838,94.6258 52.5,95C 67.1881,95.5717 81.5215,96.7384 95.5,98.5C 82.8108,98.2924 70.1441,98.6257 57.5,99.5C 57.762,100.978 57.4287,102.311 56.5,103.5C 55.7023,99.6162 54.0356,98.9495 51.5,101.5C 50.4104,100.609 50.4104,99.6086 51.5,98.5C 49.2314,97.3931 47.8981,98.2265 47.5,101C 48.1476,102.44 48.4809,103.94 48.5,105.5C 50.288,105.215 51.9547,105.548 53.5,106.5C 52.5396,107.812 52.7063,109.146 54,110.5C 56.6513,112.416 59.1513,114.416 61.5,116.5C 59.6284,115.489 57.6284,114.655 55.5,114C 52.8124,110.388 49.8124,107.221 46.5,104.5C 45.7884,101.53 44.7884,98.6968 43.5,96C 44.5354,94.1623 45.5354,92.3289 46.5,90.5C 45.3295,87.151 45.3295,83.8177 46.5,80.5C 47.5237,81.8532 48.857,82.5198 50.5,82.5C 50.1924,80.076 50.5258,77.7427 51.5,75.5C 53.2623,74.3115 54.2623,72.6449 54.5,70.5 Z"/></g>
<g><path style="opacity:1" fill="#fec82b" d="M 95.5,98.5 C 95.5,99.5 95.5,100.5 95.5,101.5C 83.5,101.5 71.5,101.5 59.5,101.5C 59.1667,103.5 58.8333,105.5 58.5,107.5C 60.1667,107.5 61.8333,107.5 63.5,107.5C 62.8333,109.5 62.1667,111.5 61.5,113.5C 64.9783,113.184 68.3117,113.684 71.5,115C 68.1954,116.843 64.8621,117.343 61.5,116.5C 59.1513,114.416 56.6513,112.416 54,110.5C 52.7063,109.146 52.5396,107.812 53.5,106.5C 51.9547,105.548 50.288,105.215 48.5,105.5C 48.4809,103.94 48.1476,102.44 47.5,101C 47.8981,98.2265 49.2314,97.3931 51.5,98.5C 50.4104,99.6086 50.4104,100.609 51.5,101.5C 54.0356,98.9495 55.7023,99.6162 56.5,103.5C 57.4287,102.311 57.762,100.978 57.5,99.5C 70.1441,98.6257 82.8108,98.2924 95.5,98.5 Z"/></g>
<g><path style="opacity:1" fill="#fccb2d" d="M 50.5,87.5 C 50.1568,89.4832 50.8235,90.8166 52.5,91.5C 52.4142,92.4959 52.7476,93.3292 53.5,94C 70.1633,94.4999 86.83,94.6666 103.5,94.5C 102.004,96.0957 100.837,97.7623 100,99.5C 101.067,100.191 102.234,100.691 103.5,101C 103.167,101.333 102.833,101.667 102.5,102C 103.416,102.374 104.25,102.874 105,103.5C 105.833,101 107,100.833 108.5,103C 106.833,104 105.5,105.333 104.5,107C 105.743,108.816 105.41,110.316 103.5,111.5C 103.167,111.5 102.833,111.5 102.5,111.5C 97.5542,111.11 96.5542,108.943 99.5,105C 98.5902,103.251 97.2569,102.084 95.5,101.5C 95.5,100.5 95.5,99.5 95.5,98.5C 81.5215,96.7384 67.1881,95.5717 52.5,95C 51.5838,94.6258 50.7504,94.1258 50,93.5C 48.8777,91.5795 48.0444,89.5795 47.5,87.5C 48.5,87.5 49.5,87.5 50.5,87.5 Z"/></g>
<g><path style="opacity:1" fill="#fbb027" d="M 33.5,87.5 C 34.3149,88.4293 35.1482,89.4293 36,90.5C 36.7702,95.9427 39.2702,100.443 43.5,104C 44.448,104.483 45.448,104.649 46.5,104.5C 49.8124,107.221 52.8124,110.388 55.5,114C 57.6284,114.655 59.6284,115.489 61.5,116.5C 63.2244,118.689 65.5578,119.856 68.5,120C 76.1594,120.5 83.8261,120.666 91.5,120.5C 91.0825,121.222 90.4158,121.722 89.5,122C 81.1733,122.5 72.84,122.666 64.5,122.5C 60.8371,120.056 56.8371,118.389 52.5,117.5C 51.9717,116.279 51.305,115.113 50.5,114C 46.6633,111.973 43.33,109.473 40.5,106.5C 39.8333,106.5 39.1667,106.5 38.5,106.5C 38.5,106.167 38.5,105.833 38.5,105.5C 37.242,103.313 36.242,100.98 35.5,98.5C 34.0825,94.9975 33.4158,91.3309 33.5,87.5 Z"/></g>
<g><path style="opacity:0.227" fill="#e7af77" d="M 31.5,94.5 C 33.1942,95.5274 34.5275,96.8608 35.5,98.5C 36.242,100.98 37.242,103.313 38.5,105.5C 34.9905,102.642 32.6571,98.9757 31.5,94.5 Z"/></g>
<g><path style="opacity:1" fill="#fec62c" d="M 95.5,101.5 C 97.2569,102.084 98.5902,103.251 99.5,105C 96.5542,108.943 97.5542,111.11 102.5,111.5C 99.4278,115.206 95.7612,118.206 91.5,120.5C 83.8261,120.666 76.1594,120.5 68.5,120C 65.5578,119.856 63.2244,118.689 61.5,116.5C 64.8621,117.343 68.1954,116.843 71.5,115C 68.3117,113.684 64.9783,113.184 61.5,113.5C 62.1667,111.5 62.8333,109.5 63.5,107.5C 61.8333,107.5 60.1667,107.5 58.5,107.5C 58.8333,105.5 59.1667,103.5 59.5,101.5C 71.5,101.5 83.5,101.5 95.5,101.5 Z"/></g>
<g><path style="opacity:1" fill="#e79c43" d="M 40.5,106.5 C 43.33,109.473 46.6633,111.973 50.5,114C 51.305,115.113 51.9717,116.279 52.5,117.5C 48.6367,116.306 45.6367,113.973 43.5,110.5C 42.5,109.167 41.5,107.833 40.5,106.5 Z"/></g>
<g><path style="opacity:1" fill="#f9b028" d="M 113.5,45.5 C 114.376,45.3691 115.043,45.7025 115.5,46.5C 115.611,50.0641 117.278,52.3974 120.5,53.5C 123.551,56.7597 125.885,60.4263 127.5,64.5C 127.931,76.9992 125.931,88.9992 121.5,100.5C 118.623,101.211 116.957,103.044 116.5,106C 115.207,106.49 113.873,106.657 112.5,106.5C 112.483,108.565 112.15,110.565 111.5,112.5C 104.998,115.465 98.3312,118.131 91.5,120.5C 95.7612,118.206 99.4278,115.206 102.5,111.5C 102.833,111.5 103.167,111.5 103.5,111.5C 107.262,108.439 111.429,105.772 116,103.5C 116.585,101.871 117.419,100.371 118.5,99C 118.257,98.0979 117.923,97.2646 117.5,96.5C 119.027,92.3163 120.861,88.3163 123,84.5C 123.667,79.5 123.667,74.5 123,69.5C 120.648,64.9352 118.815,60.2685 117.5,55.5C 116.17,52.197 114.837,48.8636 113.5,45.5 Z"/></g>
<g><path style="opacity:1" fill="#e8a353" d="M 121.5,100.5 C 119.291,105.381 115.957,109.381 111.5,112.5C 112.15,110.565 112.483,108.565 112.5,106.5C 113.873,106.657 115.207,106.49 116.5,106C 116.957,103.044 118.623,101.211 121.5,100.5 Z"/></g>
<g><path style="opacity:0.016" fill="#f4ba82" d="M 38.5,106.5 C 39.1667,106.5 39.8333,106.5 40.5,106.5C 41.5,107.833 42.5,109.167 43.5,110.5C 41.2512,109.92 39.5846,108.587 38.5,106.5 Z"/></g>
<g><path style="opacity:0.69" fill="#e19e47" d="M 52.5,117.5 C 56.8371,118.389 60.8371,120.056 64.5,122.5C 59.9683,121.895 55.9683,120.228 52.5,117.5 Z"/></g>
<g><path style="opacity:0.542" fill="#e79d3b" d="M 111.5,112.5 C 105.388,117.556 98.3881,121.056 90.5,123C 81.6567,123.824 72.9901,123.657 64.5,122.5C 72.84,122.666 81.1733,122.5 89.5,122C 90.4158,121.722 91.0825,121.222 91.5,120.5C 98.3312,118.131 104.998,115.465 111.5,112.5 Z"/></g>
</svg>
